<?xml version="1.0" encoding="UTF-8"?><svg id="Layer_2" xmlns="http://www.w3.org/2000/svg" xmlns:xlink="http://www.w3.org/1999/xlink" viewBox="0 0 561.76 914.3"><defs><clipPath id="clippath"><rect width="561.76" height="914.3" style="fill:none;"/></clipPath></defs><g id="Layer_1-2"><g style="clip-path:url(#clippath);"><g id="Group_771"><path id="Path_1359" d="m557.93,77.32c-1.43-1.55-14.76-15.08-49.32-23.54l3.91-14.33-7.85-2.69C432.5,12.21,356.75-.21,280.5,0,148.53,0,57.54,35.41,53.73,36.89l-7.7,3.04,4.65,14.44C17.88,62.87,5.18,75.84,3.81,77.33l-3.81,4.16,2.16,5.21c2.04,4.9,9.62,11.45,22.61,19.51-3.74,8.69-6.6,17.74-8.52,27.01l-3.25,17.88,16.07-8.5c37.47-19.82,58.08-22.11,61.54-22.35v287.78c0,125.03,137.81,194.47,180.04,212.76l.57.24,10.02,2.75,9.87-2.74.56-.24c42.24-18.3,180.04-87.73,180.04-212.77V120.29c4.99.48,25.39,3.49,60.95,22.3l16.07,8.5-3.26-17.89c-1.93-9.27-4.79-18.32-8.53-27.01,12.98-8.06,20.57-14.61,22.61-19.51l2.17-5.21-3.78-4.16Z" style="fill:#fff;"/><path id="Path_1360" d="m80.66,680.62c-.57-.58-1.21-1.1-1.9-1.54-.92-.59-1.89-1.11-2.9-1.54-1.2-.5-2.44-.9-3.7-1.18-1.42-.31-2.86-.46-4.31-.45-2.3-.16-4.6.44-6.53,1.7-1.48,1.12-2.32,2.91-2.23,4.77-.04.98.21,1.94.71,2.78.56.78,1.3,1.42,2.16,1.86,1.15.59,2.36,1.06,3.61,1.4,1.44.4,3.12.86,5.04,1.34,2.27.61,4.35,1.24,6.24,1.9,1.73.56,3.36,1.39,4.84,2.45,1.3.94,2.37,2.18,3.1,3.61.79,1.67,1.17,3.51,1.11,5.36.07,2.15-.4,4.29-1.37,6.21-.88,1.66-2.15,3.09-3.7,4.16-1.64,1.11-3.47,1.9-5.4,2.35-2.14.51-4.33.76-6.54.75-3.48,0-6.95-.53-10.26-1.6-3.24-1.02-6.27-2.6-8.96-4.67l3.4-6.28c.74.71,1.55,1.34,2.41,1.9,1.17.76,2.41,1.4,3.7,1.93,1.52.62,3.08,1.13,4.68,1.5,1.73.42,3.51.63,5.3.62,2.27.13,4.53-.4,6.5-1.54,1.52-.97,2.41-2.68,2.33-4.48.04-1.05-.26-2.08-.85-2.94-.66-.86-1.51-1.57-2.49-2.07-1.27-.66-2.6-1.18-3.98-1.57-1.58-.46-3.37-.95-5.37-1.47-2.05-.53-4.07-1.17-6.05-1.93-1.55-.58-3-1.41-4.28-2.45-1.1-.92-1.99-2.06-2.59-3.36-.63-1.48-.93-3.07-.88-4.68-.04-2.09.4-4.15,1.28-6.05.82-1.73,2.03-3.26,3.54-4.45,1.58-1.24,3.39-2.16,5.32-2.71,2.15-.62,4.37-.93,6.6-.91,3-.04,5.98.47,8.8,1.5,2.48.92,4.82,2.17,6.96,3.73l-3.34,6.03Z" style="fill:#fff;"/><path id="Path_1361" d="m133.56,676.17h-15.43v39.95h-7.32v-39.95h-15.5v-6.47h38.25v6.47Z" style="fill:#fff;"/><path id="Path_1362" d="m162.85,707.95c1.03.66,2.14,1.17,3.3,1.53,1.61.53,3.31.78,5,.76,1.67.08,3.33-.3,4.81-1.08,1.23-.76,2.19-1.88,2.75-3.21.69-1.69,1.11-3.48,1.24-5.3.2-2.11.3-4.57.29-7.36v-23.54h7.39v23.54c.02,3.22-.16,6.44-.52,9.65-.26,2.59-1.01,5.11-2.23,7.42-1.14,2.06-2.87,3.72-4.97,4.77-2.74,1.26-5.75,1.84-8.76,1.7-3.57.1-7.09-.9-10.07-2.88l1.77-6.01Z" style="fill:#fff;"/><path id="Path_1363" d="m208.77,692.91c0,2.16.34,4.3,1.02,6.35.63,1.97,1.62,3.81,2.91,5.42,1.25,1.56,2.8,2.84,4.58,3.77,1.86.95,3.93,1.43,6.01,1.4,2.13.03,4.23-.47,6.11-1.47,1.78-.95,3.34-2.28,4.58-3.89,1.25-1.63,2.22-3.47,2.85-5.43.65-1.98.98-4.06.98-6.15,0-2.17-.35-4.32-1.05-6.37-.65-1.95-1.65-3.76-2.94-5.36-1.26-1.54-2.81-2.81-4.58-3.73-3.8-1.89-8.28-1.87-12.07.06-1.77.95-3.33,2.25-4.58,3.83-1.27,1.61-2.23,3.44-2.85,5.4-.65,1.99-.98,4.08-.98,6.17m14.44,23.54c-3.09.04-6.15-.65-8.93-2-2.64-1.29-4.99-3.09-6.93-5.3-1.95-2.22-3.46-4.77-4.47-7.55-1.04-2.78-1.57-5.73-1.57-8.7,0-3.04.56-6.06,1.67-8.89,1.07-2.76,2.63-5.31,4.61-7.52,1.96-2.19,4.34-3.96,7-5.21,2.76-1.3,5.77-1.95,8.82-1.92,3.1-.04,6.16.66,8.92,2.05,2.64,1.33,4.99,3.17,6.92,5.41,3.85,4.5,5.98,10.23,6.01,16.15,0,6.05-2.24,11.88-6.28,16.38-1.96,2.16-4.33,3.91-6.96,5.16-2.75,1.3-5.76,1.96-8.8,1.93" style="fill:#fff;"/><path id="Path_1364" d="m286.78,680.62c-.57-.58-1.21-1.1-1.9-1.54-.92-.6-1.9-1.11-2.91-1.54-1.19-.51-2.43-.9-3.7-1.18-1.42-.31-2.86-.46-4.31-.45-2.31-.16-4.6.44-6.54,1.7-1.48,1.13-2.31,2.91-2.22,4.77-.04.98.21,1.95.71,2.78.56.78,1.3,1.42,2.16,1.86,1.15.59,2.36,1.06,3.61,1.4,1.44.41,3.11.86,5.04,1.34,2.27.61,4.35,1.24,6.24,1.9,1.73.56,3.36,1.39,4.84,2.45,1.3.94,2.37,2.18,3.1,3.61.79,1.68,1.16,3.52,1.09,5.38.07,2.15-.41,4.29-1.38,6.21-.88,1.66-2.15,3.09-3.69,4.16-1.64,1.11-3.47,1.9-5.4,2.35-2.14.51-4.34.76-6.54.75-3.49,0-6.95-.53-10.27-1.6-3.23-1.03-6.27-2.61-8.96-4.67l3.4-6.28c.74.71,1.55,1.34,2.41,1.9,1.17.76,2.41,1.4,3.7,1.93,1.52.62,3.08,1.13,4.68,1.5,1.73.42,3.51.63,5.29.62,2.27.13,4.53-.4,6.51-1.54,1.52-.97,2.4-2.68,2.32-4.48.04-1.04-.26-2.07-.85-2.94-.67-.86-1.52-1.57-2.49-2.07-1.27-.66-2.61-1.18-3.99-1.57-1.57-.46-3.36-.95-5.37-1.47-2.05-.53-4.07-1.17-6.05-1.93-1.55-.58-3-1.41-4.28-2.45-1.1-.91-1.98-2.06-2.58-3.36-.63-1.48-.93-3.07-.88-4.68-.04-2.09.4-4.15,1.28-6.05.82-1.73,2.03-3.25,3.53-4.45,1.58-1.24,3.39-2.16,5.33-2.71,2.15-.62,4.37-.93,6.6-.91,3-.04,5.98.47,8.8,1.5,2.48.92,4.82,2.17,6.96,3.73l-3.3,6.01Z" style="fill:#fff;"/><path id="Path_1365" d="m337.76,709.65v6.48h-31.84v-46.42h31.25v6.47h-23.93v13.21h20.73v6.08h-20.73v14.19h24.52Z" style="fill:#fff;"/><path id="Path_1366" d="m359.47,693.5h12.1c.99.02,1.96-.21,2.84-.65.86-.44,1.61-1.07,2.19-1.83.63-.83,1.12-1.76,1.44-2.75.36-1.12.54-2.29.52-3.46.02-1.2-.18-2.4-.59-3.53-.37-1-.93-1.92-1.64-2.71-.67-.74-1.48-1.34-2.38-1.77-.87-.4-1.82-.61-2.78-.62h-11.7v17.33Zm-7.32,22.63v-46.42h19.48c2-.02,3.99.43,5.79,1.31,1.72.84,3.26,2.01,4.54,3.43,1.28,1.42,2.29,3.06,3,4.84.7,1.76,1.07,3.63,1.07,5.53,0,3.86-1.37,7.58-3.88,10.51-1.23,1.42-2.73,2.57-4.41,3.4-1.78.87-3.74,1.3-5.73,1.28h-12.55v16.16l-7.31-.02Z" style="fill:#fff;"/><path id="Path_1367" d="m437.42,669.7v46.42h-7.39v-20.47h-23.41v20.47h-7.32v-46.42h7.32v19.42h23.4v-19.42h7.39Z" style="fill:#fff;"/><path id="Path_1368" d="m452.34,668.39c.9,0,1.8.1,2.68.29.88.19,1.73.51,2.52.95.76.43,1.41,1.04,1.9,1.76.52.82.79,1.78.75,2.75v8.37h-6.01v-7.13c.09-.58-.2-1.16-.72-1.44-.35-.18-.72-.29-1.11-.32v-5.23Z" style="fill:#fff;"/><path id="Path_1369" d="m503.39,680.62c-.57-.58-1.21-1.1-1.9-1.54-.92-.6-1.9-1.11-2.91-1.54-1.19-.51-2.43-.9-3.7-1.18-1.42-.31-2.86-.46-4.31-.45-2.31-.16-4.6.44-6.54,1.7-1.48,1.13-2.31,2.91-2.23,4.77-.04.98.21,1.95.71,2.78.56.78,1.3,1.42,2.16,1.86,1.15.59,2.36,1.06,3.61,1.4,1.44.41,3.11.86,5.04,1.34,2.27.61,4.35,1.24,6.24,1.9,1.73.56,3.36,1.39,4.84,2.45,1.3.94,2.37,2.18,3.1,3.61.79,1.67,1.17,3.51,1.11,5.36.07,2.15-.41,4.29-1.38,6.21-.88,1.66-2.15,3.09-3.69,4.16-1.64,1.11-3.47,1.9-5.4,2.35-2.14.51-4.34.76-6.54.75-3.49,0-6.95-.53-10.27-1.6-3.23-1.03-6.27-2.61-8.96-4.67l3.4-6.28c.74.71,1.55,1.34,2.41,1.9,1.17.76,2.41,1.4,3.7,1.93,1.52.62,3.08,1.13,4.68,1.5,1.73.42,3.51.63,5.29.62,2.27.13,4.53-.4,6.51-1.54,1.52-.97,2.41-2.68,2.33-4.48.04-1.05-.26-2.08-.85-2.94-.67-.86-1.52-1.57-2.49-2.07-1.27-.66-2.61-1.19-3.99-1.57-1.57-.46-3.36-.95-5.37-1.47-2.05-.53-4.07-1.17-6.05-1.93-1.55-.58-3-1.41-4.28-2.45-1.1-.91-1.98-2.06-2.58-3.36-.63-1.48-.93-3.07-.88-4.68-.04-2.09.4-4.15,1.28-6.05.82-1.73,2.03-3.25,3.53-4.45,1.58-1.24,3.39-2.16,5.33-2.71,2.15-.62,4.37-.93,6.6-.91,3-.04,5.98.47,8.8,1.5,2.48.92,4.82,2.17,6.96,3.73l-3.33,6.03Z" style="fill:#fff;"/><path id="Path_1370" d="m114.21,771.05c0-2.85.52-5.67,1.5-8.34.98-2.73,2.46-5.25,4.35-7.45,1.94-2.23,4.31-4.04,6.97-5.33,2.92-1.39,6.12-2.09,9.35-2.03,3.76-.11,7.47.87,10.69,2.81,2.88,1.76,5.2,4.3,6.7,7.32l-5.76,3.85c-.55-1.3-1.33-2.49-2.29-3.52-.86-.92-1.86-1.7-2.97-2.29-1.04-.55-2.15-.96-3.31-1.2-1.1-.24-2.21-.36-3.33-.36-2.17-.05-4.32.46-6.25,1.47-1.78.95-3.33,2.28-4.54,3.89-1.23,1.63-2.16,3.47-2.75,5.43-.6,1.95-.91,3.98-.91,6.01-.01,2.2.36,4.39,1.08,6.47.68,1.98,1.71,3.82,3.04,5.43,1.28,1.55,2.86,2.83,4.64,3.76,1.82.94,3.84,1.42,5.88,1.4,1.16,0,2.31-.15,3.44-.42,1.2-.28,2.34-.75,3.4-1.38,1.09-.65,2.09-1.46,2.97-2.38.95-1.02,1.73-2.19,2.29-3.47l6.08,3.47c-.73,1.72-1.78,3.28-3.1,4.6-1.33,1.33-2.84,2.46-4.48,3.37-1.67.92-3.45,1.63-5.3,2.1-1.82.47-3.68.71-5.56.71-3.07.04-6.1-.68-8.82-2.09-2.62-1.37-4.96-3.22-6.9-5.46-3.91-4.56-6.08-10.37-6.11-16.38" style="fill:#fff;"/><path id="Path_1371" d="m172.01,771.38c0,2.15.34,4.29,1.02,6.34.63,1.97,1.62,3.81,2.91,5.43,1.25,1.56,2.81,2.84,4.58,3.76,1.86.95,3.93,1.43,6.01,1.4,2.13.03,4.23-.47,6.11-1.47,1.78-.96,3.34-2.28,4.58-3.89,1.25-1.63,2.22-3.47,2.85-5.43.65-1.98.98-4.06.98-6.15,0-2.17-.35-4.33-1.05-6.38-.65-1.95-1.65-3.76-2.94-5.36-1.26-1.54-2.81-2.81-4.58-3.73-3.8-1.9-8.28-1.88-12.07.06-1.77.95-3.33,2.25-4.58,3.83-1.27,1.61-2.23,3.44-2.85,5.4-.65,2-.98,4.08-.98,6.18m14.44,23.54c-3.09.04-6.15-.65-8.93-2-2.63-1.3-4.99-3.1-6.93-5.3-1.95-2.22-3.47-4.78-4.47-7.55-1.04-2.78-1.57-5.73-1.57-8.7,0-3.04.56-6.06,1.67-8.89,1.07-2.77,2.63-5.32,4.61-7.52,1.96-2.18,4.34-3.96,6.99-5.21,2.76-1.3,5.77-1.96,8.82-1.93,3.1-.04,6.15.67,8.92,2.05,2.63,1.34,4.97,3.17,6.9,5.4,3.85,4.5,5.99,10.23,6.01,16.15,0,6.05-2.23,11.88-6.28,16.38-1.96,2.16-4.33,3.91-6.96,5.16-2.75,1.3-5.76,1.96-8.8,1.93" style="fill:#fff;"/><path id="Path_1372" d="m222.68,794.59v-46.42h7.32v39.96h24.91v6.47h-32.23Z" style="fill:#fff;"/><path id="Path_1373" d="m267.8,794.59v-46.42h7.34v39.96h24.91v6.47h-32.25Z" style="fill:#fff;"/><path id="Path_1374" d="m344.76,788.12v6.47h-31.84v-46.43h31.25v6.48h-23.92v13.21h20.71v6.08h-20.71v14.2h24.52Z" style="fill:#fff;"/><path id="Path_1375" d="m391.18,788.85c-3.34,3.85-8.18,6.06-13.27,6.07-2.94.01-5.84-.68-8.47-2-2.61-1.31-4.94-3.11-6.87-5.3-1.96-2.24-3.51-4.81-4.58-7.59-3.35-8.61-1.58-18.37,4.58-25.26,1.94-2.13,4.28-3.85,6.9-5.06,6.34-2.77,13.62-2.44,19.68.91,2.89,1.77,5.22,4.32,6.73,7.36l-5.61,4.05c-1.11-2.36-2.9-4.34-5.14-5.69-2.17-1.27-4.65-1.92-7.16-1.9-2.03-.02-4.03.46-5.82,1.41-1.73.92-3.25,2.19-4.47,3.73-1.28,1.61-2.25,3.44-2.88,5.4-.68,2.07-1.02,4.24-1.01,6.42-.02,2.25.36,4.49,1.11,6.61.69,1.96,1.75,3.78,3.1,5.36,1.3,1.5,2.89,2.74,4.68,3.63,1.81.9,3.8,1.35,5.82,1.34,5.07-.18,9.76-2.72,12.68-6.86v-4.92h-9.74v-5.43h15.89v23.47h-6.15v-5.74Z" style="fill:#fff;"/><path id="Path_1376" d="m444.21,788.12v6.47h-31.84v-46.43h31.25v6.48h-23.93v13.21h20.73v6.08h-20.73v14.2h24.52Z" style="fill:#fff;"/><path id="Path_1377" d="m175.28,859.98v-23.2h3.66v19.98h12.46v3.23h-16.12Z" style="fill:#fff;"/><path id="Path_1378" d="m199.05,848.37c0,1.08.17,2.15.51,3.18.32.98.81,1.9,1.45,2.71.63.78,1.4,1.42,2.29,1.88,1.91.95,4.17.94,6.07-.03.89-.48,1.67-1.14,2.28-1.95.63-.81,1.11-1.73,1.43-2.71.32-.99.49-2.03.49-3.08,0-1.08-.17-2.16-.52-3.18-.33-.98-.83-1.88-1.47-2.69-.63-.77-1.41-1.4-2.29-1.86-1.9-.94-4.13-.93-6.01.03-.88.48-1.66,1.13-2.29,1.92-.63.8-1.11,1.72-1.42,2.69-.32,1-.49,2.04-.49,3.09m7.22,11.77c-1.54.02-3.07-.32-4.46-1-1.32-.65-2.5-1.55-3.47-2.65-.97-1.11-1.73-2.39-2.24-3.78-.52-1.39-.8-2.86-.8-4.35,0-1.52.28-3.03.83-4.44.53-1.38,1.31-2.66,2.3-3.77.98-1.09,2.17-1.97,3.5-2.59,1.38-.65,2.89-.98,4.41-.97,1.55-.02,3.08.34,4.46,1.03,1.31.66,2.49,1.58,3.45,2.69,4.07,4.68,4.02,11.66-.13,16.27-.98,1.08-2.16,1.96-3.48,2.59-1.38.65-2.89.98-4.41.96" style="fill:#fff;"/><path id="Path_1379" d="m222.95,848.21c0-1.42.26-2.83.75-4.17.49-1.36,1.23-2.63,2.17-3.73.97-1.11,2.15-2.02,3.48-2.66,1.46-.7,3.06-1.04,4.68-1.01,1.88-.05,3.74.44,5.34,1.41,1.44.88,2.6,2.14,3.35,3.66l-2.88,1.93c-.52-1.24-1.45-2.27-2.63-2.91-.52-.28-1.08-.48-1.65-.61-.55-.12-1.11-.18-1.67-.18-1.09-.02-2.16.23-3.12.73-.89.48-1.66,1.15-2.27,1.95-.61.82-1.08,1.74-1.38,2.71-.3.97-.46,1.98-.46,3,0,1.1.18,2.2.54,3.24.34.99.85,1.91,1.52,2.71.64.77,1.43,1.41,2.32,1.88.91.47,1.92.71,2.95.7.58,0,1.15-.08,1.71-.21.6-.15,1.17-.38,1.7-.69.55-.33,1.05-.74,1.49-1.2.47-.51.86-1.1,1.14-1.73l3.04,1.73c-.36.86-.89,1.64-1.56,2.3-.66.67-1.41,1.24-2.24,1.69-.83.46-1.72.81-2.65,1.05-.91.24-1.84.36-2.78.36-1.53.02-3.05-.34-4.41-1.05-1.31-.68-2.49-1.6-3.45-2.73-1.96-2.28-3.05-5.18-3.06-8.19" style="fill:#fff;"/><path id="Path_1380" d="m268.84,836.78v23.21h-3.69v-10.23h-11.7v10.23h-3.66v-23.21h3.66v9.7h11.7v-9.7h3.69Z" style="fill:#fff;"/><rect id="Rectangle_338" x="277.35" y="836.8" width="3.66" height="23.18" style="fill:#fff;"/><path id="Path_1381" d="m293.17,843.63v16.35h-3.66v-23.2h2.87l13.28,16.74v-16.74h3.69v23.18h-3.04l-13.14-16.33Z" style="fill:#fff;"/><path id="Path_1382" d="m319.26,836.78l7.03,18.6,6.96-18.6h3.87l-9.25,23.21h-3.14l-9.35-23.21h3.89Z" style="fill:#fff;"/><path id="Path_1383" d="m349.86,840.86l-3.85,10.1h7.58l-3.73-10.1Zm-10.86,19.12l9.35-23.21h3.01l9.32,23.21h-3.89l-2.48-6.31h-8.95l-2.41,6.31h-3.95Z" style="fill:#fff;"/><path id="Path_1384" d="m370.43,848.66h6.42c.49,0,.98-.11,1.42-.34.43-.24.8-.56,1.1-.95.31-.42.56-.89.72-1.39.17-.54.26-1.1.26-1.67,0-.57-.1-1.14-.31-1.67-.19-.5-.46-.96-.8-1.38-.33-.38-.73-.7-1.18-.93-.43-.22-.91-.34-1.39-.34h-6.23v8.67Zm-3.66,11.32v-23.2h10.1c1,0,1.99.21,2.9.65.86.42,1.64,1,2.27,1.72.63.71,1.14,1.52,1.49,2.41.35.88.54,1.82.54,2.76,0,.76-.11,1.53-.33,2.26-.21.71-.52,1.38-.91,2-.39.6-.87,1.14-1.44,1.58-.56.44-1.19.78-1.86,1l5.53,8.82h-4.15l-5.1-8.08h-5.37v8.08h-3.66Z" style="fill:#fff;"/><path id="Path_1385" d="m251.85,910.78v3.21h-12.27v-3.21h4.49v-16.48c-.24.33-.53.62-.87.86-.43.34-.89.64-1.36.91-.5.29-1.03.53-1.57.73-.46.18-.95.28-1.45.29v-3.32c.63-.01,1.24-.17,1.79-.47.59-.3,1.15-.65,1.68-1.05.45-.32.87-.67,1.26-1.06.19-.17.36-.36.52-.55h3.64v20.12h4.14Z" style="fill:#fff;"/><path id="Path_1386" d="m261.71,897.23c0,.48.11.95.36,1.37.23.39.55.72.91.98.38.27.81.47,1.26.61.45.14.91.21,1.38.21.46,0,.92-.07,1.36-.21.44-.14.86-.35,1.24-.62.37-.27.68-.61.91-1.01.24-.42.37-.9.36-1.38,0-.45-.11-.9-.32-1.29-.22-.38-.51-.71-.87-.97-.37-.28-.79-.49-1.24-.62-.48-.14-.98-.22-1.48-.21-.5,0-1,.08-1.48.23-.45.14-.86.36-1.24.64-.35.26-.64.6-.85.99-.21.4-.31.85-.31,1.3m8.53,9.87c.01-.58-.13-1.16-.4-1.68-.27-.49-.63-.91-1.07-1.26-.45-.35-.96-.61-1.5-.78-.54-.17-1.11-.26-1.68-.26-.58,0-1.16.09-1.7.28-.53.17-1.03.45-1.47.8-.42.35-.77.77-1.02,1.26-.27.51-.41,1.07-.4,1.64-.01.57.13,1.14.4,1.64.26.48.62.9,1.05,1.24.45.35.95.62,1.48.8.54.18,1.11.27,1.68.28.58,0,1.16-.1,1.71-.3.54-.18,1.04-.45,1.48-.8.43-.34.78-.76,1.04-1.24.27-.49.41-1.04.4-1.6m3.61.23c.01.99-.22,1.97-.67,2.85-.44.85-1.05,1.6-1.79,2.2-.78.63-1.68,1.1-2.64,1.4-1.04.33-2.12.49-3.21.49-1.1.01-2.19-.17-3.23-.53-.95-.33-1.83-.84-2.61-1.48-.73-.62-1.32-1.38-1.74-2.25-.43-.88-.64-1.85-.63-2.83,0-.65.11-1.29.36-1.89.23-.57.54-1.1.93-1.58.37-.45.8-.86,1.27-1.2.44-.33.92-.61,1.42-.85-.9-.4-1.68-1.01-2.28-1.79-.62-.77-.96-1.74-.95-2.73-.02-.93.21-1.85.68-2.66.45-.76,1.06-1.43,1.78-1.95.73-.53,1.54-.94,2.41-1.2,1.72-.54,3.56-.54,5.28,0,.87.27,1.69.67,2.43,1.2.72.52,1.32,1.18,1.77,1.94.47.81.7,1.72.69,2.65,0,1-.34,1.97-.96,2.75-.61.79-1.41,1.41-2.33,1.81.53.25,1.04.55,1.52.89.49.36.93.79,1.29,1.28.37.49.66,1.03.88,1.6.22.62.33,1.27.32,1.92" style="fill:#fff;"/><path id="Path_1387" d="m284.95,897.23c-.01.48.11.95.36,1.37.23.39.54.72.91.98.38.27.81.47,1.26.61.45.14.91.21,1.38.21.46,0,.92-.07,1.37-.21.44-.14.86-.35,1.23-.62.37-.27.68-.61.91-1.01.24-.42.37-.9.36-1.38,0-.45-.11-.9-.32-1.29-.22-.38-.51-.71-.87-.97-.37-.28-.79-.49-1.24-.62-.48-.14-.98-.21-1.48-.21-.5,0-1,.08-1.48.23-.45.14-.86.36-1.24.64-.35.26-.64.6-.85.99-.21.4-.31.85-.31,1.3m8.53,9.87c.01-.58-.13-1.16-.4-1.68-.27-.49-.63-.91-1.07-1.26-.45-.35-.96-.61-1.5-.78-.54-.17-1.1-.26-1.67-.26-.58,0-1.16.09-1.71.28-.53.17-1.03.45-1.47.8-.42.35-.77.77-1.02,1.26-.27.51-.41,1.07-.4,1.64-.01.57.13,1.14.4,1.64.26.48.62.9,1.05,1.24.45.35.95.62,1.48.8.54.18,1.11.27,1.68.28.58,0,1.16-.1,1.71-.3.54-.18,1.04-.45,1.48-.8.43-.34.78-.76,1.04-1.24.27-.49.41-1.04.4-1.6m3.61.23c.01.99-.22,1.97-.67,2.85-.44.85-1.05,1.6-1.79,2.2-.78.63-1.68,1.1-2.64,1.4-1.04.33-2.12.49-3.21.49-1.1.01-2.19-.17-3.23-.53-.95-.33-1.83-.84-2.61-1.48-.73-.62-1.32-1.38-1.74-2.25-.43-.88-.64-1.85-.63-2.83,0-.65.11-1.29.36-1.89.23-.57.54-1.1.93-1.58.37-.45.8-.86,1.27-1.2.44-.33.92-.61,1.42-.85-.9-.4-1.68-1.01-2.28-1.79-.62-.77-.96-1.74-.95-2.73-.02-.93.22-1.85.69-2.66.45-.77,1.06-1.43,1.78-1.95.73-.53,1.54-.94,2.41-1.2,1.72-.54,3.56-.54,5.28,0,.87.27,1.69.67,2.43,1.2.72.52,1.32,1.18,1.77,1.94.47.81.7,1.72.69,2.65,0,1-.33,1.97-.96,2.75-.61.79-1.41,1.41-2.33,1.81.53.25,1.04.55,1.52.89.49.36.93.79,1.29,1.28.37.49.66,1.03.88,1.6.22.62.33,1.27.32,1.92" style="fill:#fff;"/><path id="Path_1388" d="m311,914.3c-1.74.06-3.47-.38-4.96-1.28-1.3-.8-2.24-2.06-2.65-3.53l1.95-2.28c.09.44.25.87.49,1.26.29.47.67.87,1.11,1.2.53.39,1.11.71,1.72.93.73.26,1.51.38,2.28.37.64,0,1.27-.08,1.88-.24.55-.14,1.07-.39,1.54-.71.42-.3.76-.68,1.02-1.12.26-.46.39-.97.38-1.5.01-1.22-.72-2.33-1.84-2.81-1.6-.71-3.35-1.03-5.1-.95h-1.1v-3.02h1.1c.86,0,1.72-.07,2.57-.21.7-.11,1.37-.33,2-.64.51-.25.95-.62,1.28-1.09.31-.46.46-1,.45-1.55,0-.51-.12-1.01-.36-1.45-.23-.42-.55-.78-.94-1.07-.4-.3-.85-.52-1.32-.66-.48-.14-.98-.21-1.48-.21-.63,0-1.25.08-1.86.24-.53.15-1.04.37-1.52.65-.42.26-.81.57-1.15.93-.3.32-.55.68-.75,1.07l-2.35-2.57c.37-.56.82-1.05,1.34-1.46.55-.44,1.17-.81,1.82-1.09.69-.3,1.41-.53,2.15-.69.75-.16,1.51-.24,2.28-.24,1.07,0,2.14.16,3.16.49.92.29,1.77.75,2.52,1.35.68.55,1.25,1.23,1.66,2,.4.78.61,1.64.6,2.52.04,1.19-.38,2.35-1.17,3.23-.88.9-2.02,1.51-3.26,1.76.72.12,1.41.38,2.03.75.59.35,1.12.8,1.56,1.33.44.54.77,1.15,1,1.81.24.66.36,1.36.36,2.07.02.97-.23,1.93-.71,2.77-.48.8-1.13,1.48-1.89,2-.82.56-1.74.96-2.7,1.2-1.03.27-2.09.41-3.16.4" style="fill:#fff;"/><path id="Path_1389" d="m179.84,256.9s17.41,17.39,51.93,21.22c4.42-18.7,18.46-33.64,36.86-39.2-2.38-20.72-9.64-40.58-21.19-57.94,11.83-5.21,20.77-16.53,26.46-25.74v-74.39c-.73,0-1.47-.02-2.2-.02-33.15-.07-66.26,2.37-99.04,7.29-5.17.8-10.51,1.68-15.87,2.65-10.3,1.86-20.56,4.01-30.51,6.42-8.82,2.13-17.64,4.47-26.15,6.98l-.89.25v177.9h55.84c9.14-5.97,19.98-14.81,24.76-25.41" style="fill:#e77e07;"/><path id="Path_1390" d="m247.43,552.06s21.97-156.14,21.97-202.6l-.05-.57c-20.05-5.14-35.58-23.31-38.89-46.03-33.43,4.11-50.61,21.07-50.61,21.07-5.57-12.63-18.08-21.99-27.57-27.61h-53.02v111.52c0,119.78,133.86,186.92,174.68,204.61v-34.65c-5.71-9.22-14.65-20.52-26.46-25.74" style="fill:#284e67;"/><path id="Path_1391" d="m409.73,296.32c-9.49,5.61-22,14.98-27.57,27.61,0,0-17.2-16.99-50.71-21.08-3.31,22.73-18.83,40.9-38.89,46.04l-.05.57c0,46.47,21.97,202.6,21.97,202.6-11.28,5.09-20.57,17.05-26.53,26.51v33.89c40.77-17.67,174.68-84.81,174.68-204.62v-111.53h-52.9Z" style="fill:#e77e07;"/><path id="Path_1392" d="m459.2,103.94c-8.4-2.11-17-4.09-25.55-5.9-9.88-2.1-19.97-4.04-29.93-5.75-4.99-.85-10.19-1.7-15.57-2.51-33.19-5.06-66.67-7.99-100.23-8.77v73.44c5.96,9.46,15.24,21.42,26.53,26.51-11.55,17.37-18.81,37.22-21.19,57.94,18.4,5.57,32.44,20.51,36.86,39.22,34.6-3.8,52.03-21.22,52.03-21.22,4.78,10.6,15.62,19.43,24.76,25.41h55.7V104.81c-1.1-.29-2.23-.57-3.4-.87" style="fill:#284e67;"/><path id="Path_1393" d="m179.9,368.91l-7.06,6.3.86-9.42-9.32-1.6,7.9-5.21-4.58-8.27,8.99,2.94,3.63-8.74,3.31,8.87,9.09-2.61-4.86,8.11,7.71,5.49-9.37,1.26.52,9.44-6.83-6.54Z" style="fill:#fff;"/><path id="Path_1394" d="m137.95,433.62l-5.73,7.81-1.16-9.62-9.68.4,6.82-6.9-6.35-7.32,9.62,1.01,1.77-9.53,5.21,8.16,8.55-4.56-3.14,9.17,8.89,3.85-9.12,3.27,2.54,9.35-8.24-5.1Z" style="fill:#fff;"/><path id="Path_1395" d="m189.86,524.55l-5.86,7.43-.8-9.43-9.46.05,6.87-6.5-5.91-7.38,9.37,1.32,2.05-9.22,4.81,8.15,8.5-4.15-3.38,8.82,8.54,4.06-9.01,2.87,2.16,9.22-7.89-5.25Z" style="fill:#fff;"/><path id="Path_1396" d="m238.16,423.43l-7.57,6.75.92-10.11-10-1.71,8.47-5.59-4.89-8.88,9.65,3.14,3.9-9.37,3.56,9.51,9.76-2.82-5.21,8.71,8.27,5.88-10.06,1.35.55,10.13-7.34-7Z" style="fill:#fff;"/><path id="Path_1397" d="m216.24,456.56l-5.14,2.58,1.07-5.64-4.04-4.09,5.7-.73,2.64-5.11,2.45,5.21,5.67.93-4.18,3.94.87,5.68-5.03-2.78Z" style="fill:#fff;"/><path id="Path_1398" d="m414.92,148.01l7.47,69.11c-4.52-8.82-12.43-24.13-20.05-38.84l12.58-30.27Zm-34.03,72.62l-17.62-42.29c7.51-14.5,14.57-28.11,17.58-33.91,3.02,5.81,10.1,19.47,17.64,33.99l-17.6,42.2Zm-41.48-3.74l7.44-68.89,12.56,30.16c-7.57,14.64-15.45,29.88-20,38.73m100.44,5.79c-.09-.97-.95-1.68-1.92-1.6-.97.15-1.64,1.04-1.52,2,.21,1.75-.17,3.53-1.07,5.04-.55.62-1.35.94-2.18.88-2.62-.21-5.01-1.6-6.48-3.78.02-.1.03-.19.03-.29l-9.07-84.05c-.06-.81-.67-1.47-1.46-1.6-.79-.11-1.55.33-1.84,1.07l-14.1,33.85c-9.03-17.43-17.12-33.01-17.86-34.45-.49-.84-1.56-1.13-2.4-.64-.27.15-.49.37-.64.64-.74,1.43-8.82,16.97-17.81,34.36l-14.07-33.76c-.29-.74-1.06-1.18-1.84-1.07-.8.14-1.4.8-1.46,1.6l-9.08,84.06v.19c-1.48,2.23-3.89,3.66-6.55,3.88-.82.06-1.63-.26-2.17-.88-.92-1.51-1.3-3.29-1.08-5.05.12-.97-.56-1.86-1.53-2-.95-.1-1.8.59-1.91,1.54,0,.02,0,.04,0,.07-.33,2.77.36,5.57,1.93,7.88,1.19,1.38,2.94,2.16,4.76,2.1,4.32-.33,8.16-2.86,10.19-6.68,1.07-2.25,11.87-23.14,22.45-43.59l18.12,43.51c.42.87,1.47,1.24,2.34.82.36-.17.65-.46.82-.82l18.09-43.42c10.57,20.42,21.34,41.26,22.42,43.51,2.03,3.83,5.87,6.35,10.19,6.68,1.82.06,3.57-.72,4.76-2.1,1.58-2.3,2.26-5.1,1.93-7.88" style="fill:#fff;"/><path id="Path_1399" d="m376.04,185.3c.1,3.44,1.03,5.02,3.4,5.02,2.58,0,3.61-1.58,3.61-4.92v-13.32h-3.51v-2.3h9.26v2.3h-2.71v13.32c0,4.81-2.14,7.22-6.58,7.22s-6.64-2.24-6.64-7.19v-.14h3.16Z" style="fill:#fff;"/><path id="Path_1400" d="m394.92,218.2c.1,3.44,1.03,5.02,3.4,5.02,2.58,0,3.61-1.58,3.61-4.92v-13.32h-3.51v-2.31h9.25v2.3h-2.69v13.34c0,4.81-2.14,7.22-6.58,7.22s-6.66-2.23-6.66-7.19v-.14h3.16Z" style="fill:#fff;"/><path id="Path_1401" d="m353.37,218.2c.1,3.44,1.03,5.02,3.4,5.02,2.58,0,3.61-1.58,3.61-4.92v-13.32h-3.51v-2.31h9.25v2.3h-2.71v13.34c0,4.81-2.13,7.22-6.57,7.22s-6.64-2.24-6.64-7.19v-.14h3.17Z" style="fill:#fff;"/><path id="Path_1402" d="m284.9,284.86h4.22v24.54h-4.22v-24.54Zm-4.1,26.06c0,6.44-3.75,8.66-7.43,8.66-3.32.14-6.27-2.12-7-5.37,7.52-.07,13.23-4.38,13.23-11.58,0-7.55-5.91-9.84-11.88-12.06-4.98-1.93-9.42-3.5-9.42-8.48,0-4.41,3.61-6.68,8.31-6.68,3.69,0,7.96,1.41,7.96,4.04v2.02h-.03v3.38h6.26v26.06Zm32.61-8.47h-3.75v6.85h-16.44v-34.12h5.39v-3.52h-14.87v3.52h5.38v6.3h-10.63v-3.38c0-4.16-6.01-6.44-11.88-6.44-6.73,0-12.53,3.52-12.53,10.71s5.61,9.36,11.01,11.41c5.33,2,10.3,3.87,10.3,9.25,0,4.81-3.87,7.43-9.19,7.43-4.74,0-9.01-2-9.01-5.44v-2.98h-3.92v3.92c0,4.33,4.18,6.88,8.82,7.82.59,5.69,5.57,9.89,11.28,9.53,5.99.34,11.11-4.24,11.45-10.23,0-.09,0-.19.01-.28h28.58v-10.36Z" style="fill:#3c6278;"/><path id="Path_1403" d="m68.87,104.59l-13.14-42.51c-33.47,8.08-45.43,21.1-45.43,21.1,2.43,5.85,25.75,19.38,25.75,19.38-5.03,10.2-8.77,20.99-11.14,32.11,44.23-23.4,66.22-23.42,66.22-23.42l-22.26-6.66Z" style="fill:#808588;"/><path id="Path_1404" d="m74.09,98.23c7.12-2.44,14.26-4.71,21.4-6.8,8.94-2.63,17.88-5.02,26.82-7.16,10.44-2.5,20.85-4.69,31.23-6.56,5.42-.98,10.83-1.88,16.23-2.71,82.83-12.67,161.28-7.16,219.46,1.67,5.47.8,10.75,1.68,15.84,2.55,11.11,1.91,21.3,3.91,30.45,5.85,9.99,2.12,18.73,4.18,26.04,6.01,16.4,4.13,25.61,7.13,25.61,7.13l14.54-53.21c-238.41-81.63-444.74,0-444.74,0l17.14,53.21Z" style="fill:#808588;"/><path id="Path_1405" d="m551.3,83.19s-12.43-13.51-47.31-21.53l-11.26,42.92-22.26,6.67s21.99,0,66.22,23.42c-2.37-11.12-6.11-21.91-11.14-32.11,0,0,23.32-13.53,25.75-19.38" style="fill:#808588;"/><path id="Path_1406" d="m121.3,48.53c-.48-.58-1.13-.97-1.86-1.13-.74-.16-1.51-.14-2.25.05-.57.14-1.12.35-1.64.62-.51.27-.99.61-1.4,1.01-.4.4-.72.89-.94,1.42-.22.57-.3,1.18-.22,1.78.04.45.16.88.36,1.28.19.37.49.67.85.87.46.25.96.43,1.48.54.74.15,1.49.24,2.24.29.85.07,1.68.17,2.49.28.76.11,1.49.35,2.17.7.65.34,1.2.84,1.6,1.45.47.78.75,1.66.8,2.57.11,1.02-.02,2.06-.36,3.03-.32.9-.83,1.73-1.48,2.43-.66.71-1.44,1.31-2.29,1.78-.87.48-1.81.84-2.77,1.07-.62.15-1.26.25-1.9.29-.62.04-1.25,0-1.86-.1-.59-.09-1.17-.28-1.7-.54-.54-.27-1.03-.65-1.43-1.11l2-2.37c.52.69,1.27,1.18,2.12,1.38.89.22,1.81.22,2.7,0,1.16-.29,2.22-.89,3.06-1.75.41-.43.74-.92.98-1.47.23-.56.31-1.16.24-1.76-.04-.57-.22-1.12-.52-1.6-.29-.39-.68-.69-1.14-.87-.59-.21-1.21-.34-1.83-.4l-2.57-.27c-.74-.06-1.48-.17-2.2-.34-.64-.15-1.26-.41-1.81-.78-.53-.37-.97-.85-1.28-1.42-.37-.7-.59-1.47-.65-2.26-.12-.99,0-2,.33-2.94.32-.89.81-1.71,1.44-2.41.64-.7,1.39-1.3,2.21-1.77.84-.48,1.75-.84,2.69-1.07,1.1-.29,2.24-.37,3.36-.22,1.07.16,2.08.64,2.88,1.37l-1.89,2.37Z" style="fill:#fff;"/><path id="Path_1407" d="m137.64,50.79l-4.21.9.55,7.33c.04.48.09.93.14,1.33.04.35.15.7.31,1.01.15.27.39.48.69.59.41.11.84.11,1.24,0,.36-.08.72-.2,1.05-.36.36-.16.69-.36,1-.6l.25,2.21c-.41.29-.85.52-1.32.7-.46.18-.93.32-1.4.43-.68.18-1.38.21-2.07.09-.49-.1-.93-.35-1.26-.72-.34-.41-.57-.9-.68-1.42-.15-.66-.24-1.33-.29-2l-.61-8.06-3.11.66-.12-2.07,3.11-.66-.32-4.17,2.38-.51.32,4.17,4.21-.9.13,2.04Z" style="fill:#fff;"/><path id="Path_1408" d="m142.33,51.32c-.02-.63-.07-1.25-.15-1.88-.08-.53-.12-1.07-.14-1.6l2.27-.43c0,.4.04.8.08,1.2s.07.8.09,1.2h.06c.15-.41.36-.81.62-1.16.29-.41.63-.78,1.01-1.1.41-.35.87-.65,1.35-.89.52-.26,1.07-.44,1.64-.55.16-.04.33-.06.5-.07.17-.01.34,0,.51.03l-.02,2.51c-.44-.04-.89-.02-1.32.06-1.31.17-2.46.94-3.12,2.08-.65,1.3-.92,2.75-.78,4.19l.4,7.16-2.41.46-.59-11.21Z" style="fill:#fff;"/><path id="Path_1409" d="m165.06,49.86c0-1.08-.47-2.1-1.29-2.81-.91-.66-2.07-.88-3.16-.61-1.23.16-2.37.76-3.21,1.67-.81.91-1.29,2.05-1.38,3.26l9.05-1.52Zm2.21,5.67c-.69,1.14-1.63,2.11-2.75,2.84-1.09.65-2.29,1.08-3.55,1.27-1.02.19-2.07.16-3.07-.1-.87-.23-1.67-.67-2.34-1.27-.66-.61-1.18-1.37-1.51-2.21-.37-.94-.57-1.93-.59-2.94-.04-1.09.11-2.18.46-3.21.33-.99.83-1.9,1.48-2.71.64-.79,1.41-1.46,2.29-1.97.9-.53,1.9-.89,2.94-1.06.93-.17,1.88-.15,2.81.06.82.19,1.58.58,2.21,1.14.65.61,1.15,1.36,1.45,2.19.37,1.02.57,2.09.58,3.17l.03.8-11.63,1.94c.06.6.23,1.19.5,1.73.25.51.6.97,1.03,1.34.42.37.93.65,1.47.8.6.16,1.22.18,1.83.07.94-.14,1.84-.48,2.63-1.01.75-.54,1.39-1.22,1.9-2l1.82,1.11Z" style="fill:#fff;"/><path id="Path_1410" d="m173.04,46.11c.02-.63,0-1.26-.05-1.88-.05-.53-.06-1.07-.04-1.6l2.28-.31c0,.4,0,.8.02,1.2s.03.8.03,1.2h.06c.17-.41.4-.79.68-1.13.31-.39.67-.74,1.07-1.04.43-.32.9-.59,1.4-.8.53-.23,1.09-.39,1.67-.46.81-.14,1.65-.1,2.45.1.65.18,1.24.52,1.71,1,.48.5.82,1.1,1.01,1.76.23.78.34,1.59.32,2.41l-.02,9.09-2.41.33.03-8.82c.07-1-.21-1.99-.8-2.81-.64-.67-1.6-.95-2.51-.73-1.39.1-2.66.83-3.44,1.99-.75,1.28-1.12,2.75-1.07,4.23v7.17l-2.41.32v-11.23Z" style="fill:#fff;"/><path id="Path_1411" d="m193.49,47.37c-.03.7.08,1.4.34,2.05.23.58.59,1.11,1.04,1.55.46.43,1,.76,1.6.95.64.21,1.31.28,1.98.2.78-.07,1.53-.3,2.21-.67.63-.34,1.19-.8,1.66-1.35.45-.53.81-1.14,1.05-1.8.24-.66.37-1.36.4-2.07.03-.73-.07-1.45-.3-2.15-.21-.6-.55-1.15-1-1.6-.45-.44-1-.76-1.6-.94-.68-.2-1.39-.26-2.09-.17-.73.07-1.45.29-2.09.64-.62.34-1.18.79-1.64,1.33-.47.54-.85,1.17-1.11,1.84-.28.7-.43,1.44-.45,2.19m12.47,5.36c.06,2.31-.73,4.56-2.22,6.33-1.57,1.62-3.69,2.58-5.94,2.71-1.29.16-2.59.08-3.85-.22-1.2-.33-2.31-.96-3.21-1.82l1.81-2.19c.67.7,1.48,1.26,2.38,1.64.94.35,1.94.46,2.94.33.94-.08,1.85-.34,2.69-.77.68-.37,1.28-.88,1.74-1.5.44-.6.76-1.28.93-2,.19-.74.29-1.5.31-2.26l.08-1.89h-.06c-.57.96-1.38,1.75-2.34,2.31-.88.52-1.85.84-2.86.96-1.04.13-2.1.05-3.11-.24-.89-.25-1.71-.7-2.41-1.32-.67-.61-1.18-1.38-1.5-2.23-.35-.94-.51-1.95-.47-2.96.03-1.13.25-2.24.65-3.3.38-.97.94-1.85,1.66-2.6.72-.74,1.56-1.34,2.49-1.78,1-.47,2.07-.76,3.16-.87.99-.1,1.99.03,2.91.4.93.35,1.68,1.05,2.1,1.95h.06l.11-2.52,2.41-.26-.46,14.08Z" style="fill:#fff;"/><path id="Path_1412" d="m220.51,39.63l-4.28.34-.4,7.35c-.02.48-.03.92-.03,1.33,0,.36.05.71.18,1.05.11.29.33.53.6.67.39.17.81.23,1.23.17.76-.07,1.5-.3,2.17-.67l-.04,2.23c-.44.23-.91.4-1.4.52-.48.12-.96.2-1.45.24-.69.09-1.4.03-2.07-.18-.47-.16-.87-.47-1.14-.88-.28-.45-.45-.97-.48-1.51-.07-.68-.09-1.37-.06-2.05l.45-8.07-3.16.26.14-2.07,3.17-.26.22-4.17,2.41-.2-.19,4.19,4.28-.34-.14,2.07Z" style="fill:#fff;"/><path id="Path_1413" d="m226.2,28.22l2.43-.14-.89,11.07h.06c.21-.33.45-.63.74-.9.34-.31.7-.59,1.09-.83.44-.26.9-.48,1.38-.64.52-.18,1.06-.28,1.6-.31.82-.07,1.65.03,2.44.29.63.23,1.19.61,1.62,1.12.43.54.73,1.17.87,1.84.17.79.22,1.6.14,2.41l-.72,9.06-2.43.14.71-8.82c.15-1-.06-2.01-.59-2.87-.59-.72-1.52-1.07-2.44-.92-1.4,0-2.71.66-3.56,1.77-.85,1.22-1.34,2.65-1.4,4.14l-.55,7.15-2.43.14,1.92-23.69Z" style="fill:#fff;"/><path id="Path_1414" d="m256.09,28.49l-2.53,22.12,2.62-.06,2.52-22.13-2.61.07Z" style="fill:#fff;"/><path id="Path_1415" d="m264.2,39.28c.1-.62.16-1.24.19-1.87.02-.54.08-1.07.17-1.6h2.3c-.06.4-.1.8-.14,1.18s-.07.8-.14,1.2h.06c.23-.38.51-.73.83-1.03.36-.35.76-.65,1.2-.89.47-.27.97-.48,1.49-.63.56-.16,1.13-.24,1.71-.24.82-.03,1.64.12,2.41.43.61.26,1.15.67,1.56,1.2.4.56.67,1.2.77,1.88.12.8.12,1.61,0,2.41l-1.2,9.01h-2.43l1.18-8.76c.2-.99.05-2.01-.43-2.9-.55-.76-1.47-1.16-2.41-1.05-1.4-.08-2.75.5-3.66,1.57-.91,1.18-1.46,2.58-1.6,4.06l-.93,7.16h-2.43l1.49-11.11Z" style="fill:#fff;"/><path id="Path_1416" d="m294.64,48.24l4.98.19c1.21.05,2.43-.07,3.61-.36,1.11-.28,2.16-.76,3.1-1.43.95-.69,1.74-1.57,2.34-2.58.69-1.19,1.15-2.49,1.36-3.85.27-1.29.27-2.61,0-3.9-.22-1.01-.7-1.95-1.4-2.71-.7-.75-1.57-1.31-2.54-1.64-1.11-.39-2.27-.6-3.44-.63l-4.97-.18-3.04,17.09Zm.86-19.61l8.47.31c1.16.06,2.31.3,3.4.71,1.19.43,2.28,1.12,3.19,2,.97.98,1.69,2.18,2.1,3.49.48,1.69.54,3.47.17,5.19-.29,1.82-.97,3.56-2,5.08-.89,1.29-2.01,2.41-3.3,3.29-1.17.8-2.47,1.39-3.84,1.74-1.18.32-2.39.47-3.61.45l-8.47-.32,3.89-21.95Z" style="fill:#fff;"/><path id="Path_1417" d="m319.68,31.52c.1-.48.37-.91.76-1.2.38-.32.87-.48,1.37-.45.46.01.88.23,1.15.6.27.36.36.82.26,1.26-.08.49-.34.94-.74,1.24-.4.3-.89.44-1.38.4-.45,0-.88-.21-1.16-.57-.26-.37-.36-.84-.26-1.28m-.55,5.67l2.43.14-2.88,14.44-2.41-.14,2.85-14.44Z" style="fill:#fff;"/><path id="Path_1418" d="m328.87,39.89l-3.16-.22.45-2.02,3.17.22.67-3.23c.17-.83.42-1.63.76-2.41.3-.68.72-1.31,1.26-1.83.53-.51,1.16-.9,1.86-1.13.82-.26,1.69-.36,2.55-.28.33.03.66.09.98.17.29.07.57.19.83.34l-.8,2.13c-.5-.25-1.05-.39-1.6-.43-.52-.07-1.05.01-1.53.22-.39.18-.73.47-.97.83-.26.42-.46.87-.59,1.35-.16.53-.29,1.1-.4,1.72l-.57,2.71,3.54.26-.45,2.02-3.55-.25-2.61,12.38-2.41-.17,2.58-12.38Z" style="fill:#fff;"/><path id="Path_1419" d="m339.67,40.73l-3.16-.26.48-2,3.16.26.71-3.21c.18-.83.45-1.63.8-2.41.31-.68.74-1.3,1.28-1.82.53-.5,1.17-.88,1.87-1.11.83-.25,1.7-.33,2.56-.24.33.03.65.09.97.17.29.07.57.19.83.35l-.83,2.12c-.24-.12-.5-.22-.76-.3-.27-.08-.55-.13-.83-.15-.52-.06-1.05,0-1.53.2-.4.18-.74.46-.98.83-.27.41-.48.86-.61,1.34-.16.53-.3,1.1-.44,1.71l-.6,2.7,3.54.3-.48,2-3.54-.3-2.76,12.34-2.43-.2,2.77-12.33Z" style="fill:#fff;"/><path id="Path_1420" d="m351.37,34c.11-.48.4-.89.8-1.17.39-.31.89-.45,1.38-.4.45.03.87.26,1.13.64.26.37.34.84.22,1.28-.1.49-.39.92-.8,1.2-.4.29-.9.42-1.4.36-.46-.01-.88-.24-1.14-.61-.25-.38-.33-.86-.2-1.3m-.77,5.65l2.41.24-3.42,14.32-2.41-.24,3.42-14.32Z" style="fill:#fff;"/><path id="Path_1421" d="m368.87,45.31c-.3-.62-.77-1.14-1.34-1.51-.57-.36-1.22-.58-1.88-.64-.75-.09-1.51-.03-2.23.17-.67.2-1.29.53-1.83.97-.54.45-1,.99-1.35,1.6-.37.63-.65,1.3-.83,2-.18.68-.24,1.39-.17,2.09.06.64.26,1.25.57,1.81.3.53.73.98,1.25,1.31.58.36,1.23.58,1.9.64,1.51.19,3.03-.31,4.14-1.36l1.35,1.88c-.85.69-1.84,1.19-2.9,1.46-1.03.26-2.09.33-3.14.21-1.03-.09-2.02-.4-2.92-.89-.8-.43-1.48-1.06-1.97-1.82-.49-.77-.8-1.64-.92-2.55-.13-1.03-.05-2.08.24-3.08.25-1.04.69-2.03,1.3-2.92.58-.86,1.31-1.6,2.15-2.21.83-.6,1.77-1.04,2.76-1.31,1.05-.28,2.13-.35,3.21-.22,1.02.1,2.01.4,2.91.89.86.47,1.58,1.16,2.09,2l-2.36,1.46Z" style="fill:#fff;"/><path id="Path_1422" d="m385.71,55.06c-.18.6-.33,1.21-.45,1.83-.11.57-.22,1.09-.35,1.55l-2.28-.3c.09-.4.18-.77.28-1.15s.19-.8.28-1.2h-.06c-.28.35-.6.66-.97.91-.85.6-1.83,1-2.86,1.14-1.4.18-2.82-.08-4.06-.75-.58-.34-1.05-.83-1.38-1.41-.32-.61-.5-1.28-.51-1.97-.02-.81.09-1.63.32-2.41l2.46-8.75,2.41.32-2.37,8.51c-.34.94-.34,1.98,0,2.92.43.82,1.28,1.34,2.21,1.36,1.37.27,2.79-.12,3.83-1.05,1.06-1.04,1.81-2.35,2.16-3.8l1.93-6.91,2.41.32-3,10.83Z" style="fill:#fff;"/><path id="Path_1423" d="m397.83,36.56l2.41.36-6.74,22.8-2.41-.36,6.74-22.8Z" style="fill:#fff;"/><path id="Path_1424" d="m411.31,49.89l-4.25-.69-2.16,7.04c-.14.46-.26.89-.35,1.28-.1.34-.12.7-.08,1.06.04.31.19.6.43.8.33.26.73.42,1.15.46.37.05.74.07,1.11.05.39-.02.78-.08,1.15-.19l-.57,2.15c-.49.12-.98.18-1.48.17-.49,0-.98-.04-1.46-.12-.69-.08-1.36-.3-1.96-.66-.42-.27-.74-.66-.91-1.13-.16-.51-.19-1.05-.1-1.58.1-.68.26-1.35.47-2l2.37-7.73-3.14-.51.64-1.98,3.14.51,1.2-4.01,2.41.4-1.2,4.01,4.24.69-.64,1.98Z" style="fill:#fff;"/><path id="Path_1425" d="m417.97,43.21c.15-.47.47-.86.89-1.11.42-.27.92-.37,1.41-.29.45.06.85.33,1.07.73.22.39.27.86.12,1.28-.14.48-.45.89-.88,1.14-.42.26-.93.35-1.42.26-.45-.05-.86-.31-1.1-.7-.22-.4-.26-.88-.1-1.32m-1.2,5.58l2.41.43-4.54,14-2.41-.43,4.54-14Z" style="fill:#fff;"/><path id="Path_1426" d="m434.34,58.2c.38-1.01.29-2.14-.22-3.09-.62-.94-1.63-1.55-2.75-1.68-1.21-.27-2.47-.11-3.58.45-1.07.57-1.93,1.47-2.44,2.57l8.99,1.75Zm.08,6.08c-1.05.83-2.27,1.41-3.57,1.7-1.25.22-2.53.21-3.77-.05-1.02-.18-1.99-.58-2.83-1.17-.73-.52-1.33-1.21-1.75-2-.41-.81-.63-1.7-.64-2.6-.02-1,.15-2,.48-2.95.67-2.04,2.05-3.77,3.89-4.88,1.79-1.06,3.92-1.42,5.96-1.01.92.16,1.81.51,2.59,1.03.71.46,1.28,1.1,1.67,1.85.4.79.6,1.67.6,2.56,0,1.08-.2,2.15-.57,3.17l-.24.75-11.56-2.27c-.16.58-.21,1.19-.14,1.8.06.56.23,1.11.5,1.6.27.49.65.92,1.1,1.25.5.36,1.08.6,1.69.71.93.2,1.88.19,2.81-.03.89-.24,1.73-.65,2.47-1.2l1.32,1.76Z" style="fill:#fff;"/><path id="Path_1427" d="m440.82,64.41c.23.63.58,1.2,1.03,1.69.53.51,1.2.84,1.93.96.38.08.77.12,1.15.12.39,0,.78-.05,1.15-.17.35-.1.68-.28.97-.51.29-.24.51-.54.64-.89.14-.3.17-.65.08-.97-.1-.29-.26-.55-.48-.76-.25-.25-.53-.45-.84-.61-.33-.18-.67-.35-1.02-.51-.62-.28-1.2-.58-1.76-.89-.5-.27-.96-.62-1.35-1.04-.34-.38-.58-.84-.68-1.35-.09-.62,0-1.25.24-1.83.23-.64.62-1.21,1.11-1.67.49-.44,1.06-.78,1.67-1.01.64-.23,1.3-.37,1.98-.4.69-.04,1.38.01,2.06.16.95.19,1.84.6,2.61,1.2.72.59,1.19,1.43,1.31,2.36l-2.45.84c-.11-.55-.37-1.05-.75-1.45-.45-.45-1.03-.74-1.65-.85-.34-.07-.68-.11-1.03-.1-.35,0-.7.06-1.04.16-.32.09-.62.25-.88.46-.25.21-.45.49-.55.8-.1.26-.09.55.03.8.15.28.35.52.6.71.31.25.64.47.99.66.41.22.83.42,1.26.59.55.24,1.09.53,1.6.85.46.28.87.64,1.2,1.07.31.41.51.89.58,1.4.06.62-.03,1.25-.27,1.82-.23.73-.65,1.38-1.2,1.9-.52.47-1.13.84-1.79,1.06-.68.23-1.39.35-2.1.36-.73.01-1.46-.06-2.17-.22-1.06-.2-2.07-.61-2.95-1.23-.81-.64-1.39-1.53-1.65-2.54l2.42-1Z" style="fill:#fff;"/><path id="Path_1428" d="m222.36,145.08c-.13-1.68-.26-3.35-.4-5.03-7.22,3.15-14.14,6.93-20.7,11.28-8.15,5.31-15.26,12.06-21,19.91,6.73-5.39,13.76-10.41,21.04-15.03,6.71-4.27,13.75-7.99,21.06-11.13" style="fill:#fff;"/><path id="Path_1429" d="m180.27,171.25c-5.85-7.77-13.06-14.42-21.28-19.62-6.62-4.26-13.59-7.94-20.85-10.99-.11,1.68-.21,3.36-.32,5.04,7.35,3.03,14.45,6.65,21.22,10.83,7.34,4.52,14.44,9.44,21.25,14.74" style="fill:#fff;"/><path id="Path_1430" d="m180.31,176.56c-6.54-5.97-13.66-11.27-21.25-15.83-9.46-5.7-19.32-10.71-29.51-14.96l-.4,6.12,29.94,14.44,21.22,10.23Z" style="fill:#fff;"/><path id="Path_1431" d="m231.11,151.19l-.48-6.11c-10.13,4.4-19.92,9.54-29.3,15.37-7.53,4.67-14.57,10.07-21.03,16.12l21.07-10.55,29.74-14.84Z" style="fill:#fff;"/><path id="Path_1432" d="m227.42,209.78l-45.17,18.57v-43.46l48.36-24.16-3.19,49.05Zm-97.63-48.34l48.26,23.26v43.27l-44.38-17.54-3.87-48.98Zm50.55,19.84l-55.18-26.61,4.63,58.61,50.92,20.12,50.62-20.82,3.8-58.67-54.8,27.37Z" style="fill:#fff;"/><path id="Path_1433" d="m153.42,209.9v-6.35l-.61-.33c-2.16-1.1-3.99-2.74-5.31-4.77-1.16-1.81-1.78-3.91-1.79-6.06-.12-2.05.75-4.04,2.35-5.33,2.1-1.27,4.72-1.3,6.85-.08,2.79.98,5.19,2.85,6.82,5.32,1.47,2.1,2.28,4.59,2.35,7.15.14,1.75-.51,3.47-1.78,4.68-1.56,1.06-3.53,1.32-5.32.7l-.61-.14v6.35l10.95,4.21v-3.85c.06-1.1-.58-2.11-1.6-2.52-.38-.14-1.6-.48-1.6,1.28v.63l-4.49-1.72v-.53c2.05.32,4.14-.32,5.66-1.74,1.46-1.7,2.19-3.9,2.05-6.13-.06-3.69-1.35-7.25-3.66-10.12-2.22-3.05-5.26-5.4-8.77-6.79-2.75-1.26-5.91-1.26-8.67,0-2.62,1.49-4.09,4.39-3.76,7.39.02,2.71.72,5.36,2.06,7.71,1.39,2.43,3.32,4.5,5.65,6.06v.53l-4.49-1.72v-.63c.07-1.1-.58-2.12-1.6-2.52-.38-.14-1.6-.48-1.6,1.28v3.85l10.93,4.19Z" style="fill:#fff;"/><path id="Path_1434" d="m210.82,196.92l-4.43-9.22-4.52,12.43,8.96-3.21Zm-18.33,14.93l2.71-1.02,9.48-26.11,3.75-1.2,9.19,18.88,2.71-1.02v2.5l-9.92,3.79v-2.56l3.5-1.32-2.05-4.7-11.07,4.01-2.31,6.49,3.61-1.36v2.61l-9.62,3.68.02-2.67Z" style="fill:#fff;"/><path id="Path_1435" d="m349.12,540.48c2.41-2,4.9-4.04,7.24-6.21.8-.65,1.1-1.74.74-2.71-.3-1.02-.68-2-1.06-3-.22-.6-.45-1.2-.67-1.81-.31-.89-.56-1.81-.8-2.72-.22-.83-.45-1.65-.71-2.47-1.27-4.01-2.21-8.12-2.81-12.29-1.37-7.4-1.5-14.97-.37-22.41.76-4.05,2.07-7.97,3.89-11.67,1.29-2.56,2.79-5.01,4.5-7.32.79-1.05,1.64-2.06,2.55-3,.56-.61,1.12-1.2,1.64-1.85.88-.98,1.83-1.9,2.85-2.73.71-.61,1.42-1.2,2.08-1.88,1.48,4.24,2.4,8.65,2.74,13.13.16,1.97.18,3.95.05,5.92,0,.29-.12.56-.32.77-3.11,2.93-5.87,6.21-8.24,9.76-4.05,6.22-6.39,13.39-6.79,20.8-.17,4.86.09,9.72.8,14.53l.24,1.96c.15,1.31.3,2.61.53,3.91l.59,3.44,1.71-1.48c.3-.23.59-.49.85-.77l2.09-2.34c1.93-2.17,3.92-4.41,5.77-6.71l.49-.61c1.49-1.8,2.9-3.67,4.2-5.61.57-.86,1.15-1.7,1.74-2.55.89-1.27,1.77-2.54,2.57-3.87,2.65-4.44,5.44-9.22,7.85-14.16,2.62-5.23,4.89-10.61,6.82-16.13,1.2-3.58,2.58-7.82,3.58-12.16.07-.3.15-.36.28-.4l1.42-.69c1.25-.57,2.47-1.21,3.64-1.93-.91,4.99-1.8,9.13-2.77,12.98-.14.56-.29,1.11-.45,1.66-.32,1.03-.59,2.08-.8,3.14-.24,1.14-.58,2.25-1.03,3.32-.17.45-.34.91-.49,1.36-.35.99-1.7,4.76-1.7,4.76-2.19,6.16-4.83,12.15-7.9,17.92-3.4,5.87-7.39,11.38-11.91,16.44-3.24,3.1-6.68,5.99-10.3,8.63-4.28,3.2-9.12,5.59-14.26,7.05" style="fill:#fff;"/><path id="Path_1436" d="m389.68,464.79c-.21-3.61-.78-7.18-1.7-10.68-.63-2.61-1.7-5.09-3.18-7.33,2.71-1.68,5.35-3.32,7.99-4.99l1.13-.71c2.05-1.31,4.12-2.61,6.09-4.01,2.74-1.92,5.37-3.99,7.88-6.2,3.78-3.22,6.91-7.12,9.22-11.51,2.12-4.25,3.38-8.89,3.68-13.63.22-3.82.08-7.65-.4-11.44-.09-.77-.21-1.54-.36-2.28.67,1.53,1.32,3.21,1.97,5.1l.17.48c1.1,2.93,1.96,5.95,2.59,9.01l.4,2.12c.57,2.64.91,5.32,1.02,8.02.05,4.43-.44,8.85-1.46,13.16-1.05,4-2.71,7.81-4.93,11.3-2.05,3.29-4.52,6.29-7.35,8.94-2.43,2.31-5.07,4.4-7.88,6.24-2.06,1.4-4.21,2.68-6.42,3.83l-1.52.8c-2.31,1.2-4.7,2.41-6.97,3.8" style="fill:#fff;"/><path id="Path_1437" d="m364.44,519.49c.51-1,1-2,1.47-3.02l.21-.45c1.99-4.04,3.69-8.21,5.09-12.49,1.28-4.26,2.15-7.58,2.81-10.76,1.2-5.97,1.71-12.06,1.52-18.14-.13-2.84-.47-5.68-1.02-8.47l-.3-1.71c-.67-3.44-1.68-6.81-3.02-10.04-1.16-3-2.56-5.89-4.2-8.66-.62-1.05-1.3-2.07-1.97-3.08s-1.33-1.98-1.92-3.02c-.25-.4-.54-.77-.86-1.1-.18-.19-.35-.38-.5-.59-1.71-2.32-3.57-4.52-5.57-6.59-2.28-2.41-4.68-4.72-7.11-6.82.15.06.3.12.45.18,2.25.91,4.45,1.92,6.66,2.92l2.09.95c3.62,1.72,7.07,3.8,10.28,6.21,2.58,1.88,4.94,4.03,7.06,6.42,3.06,3.32,5.49,7.18,7.17,11.37,1.71,4.08,2.63,8.44,2.73,12.86.07,3.52-.14,7.03-.62,10.51-.38,2.23-.88,4.45-1.5,6.63l-.57,2.19c-1.04,3.66-2.41,7.22-4.07,10.65l-.83,1.83c-.94,2.12-2.1,4.18-3.21,6.17-.47.8-.93,1.64-1.38,2.47-2.11,3.72-4.43,7.33-6.95,10.79,0,0-1.52,2.18-1.96,2.81" style="fill:#fff;"/><path id="Path_1438" d="m398.41,433.42c-.18-2.86-.6-5.71-1.24-8.5l-.4-2.11c-.49-2.29-1.14-4.54-1.95-6.73l-.52-1.57c-.29-1.07-.71-2.1-1.26-3.07l.12-.29c1.29-3.84,1.99-7.86,2.09-11.91,1.58,4.24,2.95,8.56,4.1,12.94l.29,1.45c.69,3.41,1.39,6.94,1.77,10.43.15,1.37.26,2.74.4,4.12l.18,2.09-.8.99c-.82.84-1.74,1.57-2.75,2.17" style="fill:#fff;"/><path id="Path_1439" d="m385.8,422.35c-.92-.13-1.77-.56-2.44-1.2-2.19-1.82-4.28-3.77-6.25-5.83-.71-.71-1.43-1.44-2.15-2.15-2.32-2.19-4.4-4.62-6.21-7.25-.78-1.1-1.38-2.32-1.78-3.61-.66-2.55.12-5.25,2.04-7.06,2.17-2.38,4.99-4.07,8.12-4.85,2.25-.74,4.59-1.15,6.96-1.2,1.16,0,2.32.13,3.45.4,1.92.45,3.43,1.93,3.91,3.84.48,1.5.66,3.08.54,4.66-.05.73-.07,1.46-.1,2.19-.01,1.63-.16,3.25-.44,4.85l-.18.95c-.75,4.7-1.9,9.32-3.42,13.83-.89,2.41-1.77,2.41-2.07,2.41" style="fill:#fff;"/><path id="Path_1440" d="m380.03,385.99c1.19-3.91,1.78-7.98,1.76-12.07l.04-.87c-.07-3.95.53-7.88,1.77-11.63,1.43-3.54,3.96-6.53,7.22-8.52,2.69-1.76,5.84-2.68,9.06-2.65.45,0,.86.04,1.32.08l.76.06c3.8.54,7.33,2.31,10.04,5.03l.07.07.33.26c.03.05.06.1.1.14.06.35.21.67.45.93.47.57.82,1.23,1.02,1.94-.55-.17-1.12-.31-1.69-.4-.33-.06-.66-.12-.98-.19-.36-.08-.73-.13-1.1-.12-1.46.05-2.86.61-3.95,1.58-1.27,1.12-2.39,2.39-3.35,3.78l-1.98,2.65c-1.5,1.95-3.04,3.97-4.43,6.05-1.03,1.54-2.25,3.01-3.42,4.41-.63.76-1.26,1.52-1.88,2.31-.6.71-1.28,1.35-2.02,1.9-.43.36-.86.71-1.28,1.09-1.68,1.43-3.58,2.59-5.61,3.44-.67.28-1.36.5-2.07.66l-.2.05" style="fill:#fff;"/><path id="Path_1441" d="m339.24,419.15c-.33,0-.9,0-1.33-1.42-1.41-4.45-1.84-9.17-1.24-13.8.39-3.92,2.18-7.58,5.03-10.3,1.49-1.48,3.22-2.7,5.12-3.59,1.44-.6,2.99-.88,4.56-.83.89,0,1.79.06,2.69.14,3.2.37,6.38.92,9.52,1.64,1.58.35,3.17.6,4.78.74-1.03.79-1.99,1.66-2.87,2.62-1.88,1.9-3.57,3.99-5.04,6.23-1.84,2.97-3.86,5.82-6.05,8.54-1.86,2.32-4.06,4.35-6.52,6.01-2.36,1.62-4.93,2.9-7.65,3.81-.32.11-.66.17-1,.18" style="fill:#fff;"/><path id="Path_1442" d="m402.79,389.96c-2.67-.04-5.32-.45-7.88-1.2l-1.96-.55c-1.95-.55-3.95-1.11-5.98-1.54.64-.37,1.23-.78,1.81-1.18.4-.27.8-.55,1.2-.8.91-.59,1.72-1.32,2.41-2.17.43-.51.88-1,1.33-1.5.71-.75,1.38-1.55,2-2.38,1.46-1.94,3.09-3.76,4.86-5.41,1.33-1.25,3.08-1.94,4.9-1.93h.47c3.14.17,6.19,1.08,8.91,2.64,2.65,1.33,5.03,3.13,7.04,5.31,1.88,1.76,3.09,4.12,3.41,6.68.03.57-.13.63-.53.66h-.4c-.27,0-.55-.02-.83-.04s-.61-.04-.92-.04h0c-2.75,0-5.49.36-8.15,1.07l-1.94.53c-2.12.63-4.28,1.15-6.46,1.56-1.08.18-2.18.27-3.28.27" style="fill:#fff;"/><path id="Path_1443" d="m363.18,376.14c.45,1.69,1.15,3.3,2.08,4.78,1.56,2.59,3.7,4.78,6.25,6.42.36.23.67.4.98.59.4-.04.8-.03,1.26-.1-1.07-.93-2.14-1.89-3.14-2.89-2.36-2.45-4.49-5.12-6.35-7.97-.51-.75-1.03-1.45-1.57-2.12.14.33.3.74.5,1.28" style="fill:#fff;"/><path id="Path_1444" d="m369.23,387.53c-2.32-1.83-4.66-5.52-4.78-4.12s-1.43.03-2-1.36c-.67-1.78-1.05-3.66-1.13-5.57,0,0-1.33-2.78-.19-2.81.21,0,.41.02.61.08-1.46-1.72-3.15-3.23-5.02-4.5l-.8-.52c-2.17-1.64-4.6-2.89-7.19-3.72-1.4-.4-2.85-.61-4.31-.64-1.09,0-2.18.17-3.21.52-2.42.8-4.6,2.21-6.33,4.09-1.79,1.79-3.17,3.96-4.04,6.34-1.18,3.36-1.38,6.98-.59,10.45.64-1.35,1.68-2.48,2.99-3.21,1.79-.91,3.76-1.4,5.77-1.44h.46c3.66.21,7.26.96,10.7,2.24,5.4,1.88,10.95,3.3,16.58,4.27l.76.11c.55.09,1.11.17,1.67.23.26.03.53.02.8.04-.24-.17-.49-.29-.74-.49" style="fill:#fff;"/><path id="Path_1445" d="m383.2,347.38c-1.25-1.05-2.79-1.71-4.41-1.9-.26-.06-.53-.08-.8-.08-.69.02-1.38.11-2.06.25-1.43.33-2.82.82-4.14,1.47-.57.25-1.13.5-1.7.73-3.08,1.2-6.31,1.98-9.59,2.33-2.36.28-4.58,1.27-6.36,2.84-1.49,1.24-2.39,3.06-2.47,5.01.05,1.94.93,3.77,2.43,5,1.51,1.31,3.1,2.52,4.75,3.64l.04.03c.12-.91.52-1.68,1.55-1.1.99.56,2.05.96,3.16,1.2.89,1.85.04,2.17.04,2.17.33.93.7,1.84,1.13,2.73.05.06.1.1.16.17,1.33,1.54,2.55,3.16,3.78,4.78,1.38,1.82,2.81,3.71,4.35,5.43.8.89,1.64,1.75,2.51,2.59-1.08-1.25-1.96-2.66-2.58-4.19-.76-2.28-1.37-4.6-1.83-6.96l-.16-1.08s-.4,1.71-1.7.96c-1.11-.77-1.38-2.3-.61-3.4.08-.11.17-.22.27-.32.4-.49.87-1.2,1.4-1.85-.14-2.34-.08-4.39-.08-4.39-.08,1.33-.5,2.62-1.2,3.75-1.12,1.57-2.86-.43-2-1.37.77-1.6,1.14-3.37,1.05-5.14.12-1.71,1.07-4.06,2.37-3.77s.62,2.94.62,2.94c0,0,.17,3.43.46,6.77.35-.36.86-.52,1.36-.43,1.52.52-.93,3.9-.93,3.9,0,0,.06.8.26,1.95.86,3.86,2.5,7.5,4.81,10.71.11.13.23.24.34.36.28-1.24.46-2.51.53-3.78.09-1.74.1-3.48.1-5.21-.04-2.85.08-5.71.37-8.55.37-2.59,1.23-5.08,2.54-7.33.4-.74.83-1.45,1.28-2.16.92-1.38,1.68-2.86,2.27-4.41.74-1.53.2-3.36-1.24-4.26" style="fill:#fff;"/></g></g></g></svg>