<?xml version="1.0" encoding="UTF-8"?><svg id="Layer_2" xmlns="http://www.w3.org/2000/svg" xmlns:xlink="http://www.w3.org/1999/xlink" viewBox="0 0 561.76 914.3"><defs><clipPath id="clippath"><rect width="561.76" height="914.3" style="fill:none;"/></clipPath></defs><g id="Layer_1-2"><g style="clip-path:url(#clippath);"><g id="Group_764"><path id="Path_1294" d="m74.11,692c-1.54-1.07-3.23-1.91-5.03-2.48-1.97-.66-4.13-1.3-6.48-1.92-1.99-.48-3.73-.93-5.23-1.35-1.29-.34-2.55-.81-3.73-1.41-.89-.44-1.65-1.09-2.23-1.88-.53-.84-.79-1.82-.75-2.81-.09-1.88.77-3.68,2.31-4.82,2.01-1.28,4.39-1.89,6.79-1.74,1.5,0,3,.15,4.46.46,1.32.28,2.6.68,3.84,1.2,1.05.43,2.06.94,3.02,1.54.72.44,1.38.96,1.97,1.55l3.46-6.07c-2.22-1.57-4.65-2.83-7.23-3.76-2.92-1.04-6.02-1.56-9.13-1.51-2.32-.02-4.63.29-6.85.92-2.01.56-3.89,1.49-5.53,2.74-1.56,1.2-2.81,2.74-3.67,4.49-.92,1.91-1.37,4-1.34,6.1-.05,1.62.25,3.23.89,4.72.62,1.31,1.54,2.48,2.68,3.4,1.34,1.06,2.84,1.9,4.46,2.48,2.05.76,4.15,1.42,6.28,1.95,2.08.52,3.94,1.02,5.56,1.48,1.43.39,2.82.92,4.14,1.58,1.01.5,1.89,1.21,2.58,2.08.62.87.93,1.91.89,2.97.09,1.82-.83,3.55-2.41,4.53-2.05,1.14-4.4,1.68-6.76,1.55-1.84,0-3.68-.2-5.47-.62-1.66-.38-3.28-.89-4.85-1.52-1.34-.53-2.63-1.18-3.84-1.95-.9-.56-1.74-1.2-2.51-1.91l-3.53,6.33c2.79,2.09,5.94,3.68,9.3,4.72,3.44,1.08,7.04,1.63,10.66,1.62,2.29,0,4.57-.25,6.79-.76,2-.45,3.9-1.26,5.6-2.38,1.61-1.07,2.93-2.51,3.84-4.2,1.01-1.94,1.5-4.1,1.43-6.27.06-1.87-.33-3.72-1.16-5.41-.77-1.45-1.87-2.7-3.22-3.66"/><path id="Path_1295" d="m111.97,714.22v-40.35h16.02v-6.52h-39.71v6.53h16.1v40.35h7.59Z"/><path id="Path_1296" d="m176.13,713.22c2.18-1.06,3.98-2.74,5.16-4.82,1.26-2.33,2.04-4.87,2.31-7.49.38-3.23.56-6.49.54-9.74v-23.76h-7.68v23.76c0,2.82-.1,5.3-.31,7.43-.13,1.84-.57,3.65-1.29,5.35-.58,1.34-1.58,2.47-2.85,3.23-1.53.8-3.25,1.17-4.99,1.1-1.76.03-3.52-.23-5.19-.77-1.21-.36-2.36-.88-3.43-1.54l-1.84,6.07c3.1,1.99,6.75,3.01,10.46,2.9,3.13.13,6.25-.46,9.1-1.74"/><path id="Path_1297" d="m230.55,669.09c-2.87-1.4-6.05-2.12-9.27-2.07-3.17-.03-6.3.63-9.17,1.94-2.76,1.26-5.23,3.05-7.27,5.25-2.05,2.23-3.68,4.8-4.79,7.59-1.15,2.86-1.74,5.91-1.73,8.98,0,3,.55,5.97,1.63,8.78,1.05,2.8,2.63,5.38,4.65,7.62,2.02,2.23,4.46,4.05,7.2,5.35,2.89,1.37,6.06,2.05,9.27,2.01,3.16.03,6.28-.63,9.13-1.95,2.73-1.26,5.19-3.03,7.23-5.21,4.2-4.54,6.52-10.44,6.51-16.54-.03-5.98-2.25-11.76-6.25-16.3-2-2.25-4.44-4.1-7.17-5.45m4.65,27.89c-.65,1.98-1.65,3.83-2.95,5.48-1.28,1.62-2.9,2.96-4.75,3.93-1.95,1.01-4.14,1.52-6.35,1.48-2.17.03-4.32-.45-6.25-1.41-1.84-.93-3.46-2.22-4.75-3.8-1.34-1.63-2.36-3.49-3.02-5.48-1.39-4.1-1.4-8.53-.03-12.64.64-1.98,1.64-3.82,2.95-5.45,1.3-1.59,2.91-2.9,4.75-3.85,3.93-1.95,8.58-1.98,12.53-.07,1.83.93,3.44,2.21,4.75,3.76,1.34,1.61,2.37,3.45,3.05,5.41.73,2.07,1.1,4.25,1.09,6.44,0,2.11-.35,4.2-1.02,6.2"/><path id="Path_1298" d="m273.76,673.61c1.5,0,3,.15,4.46.46,1.32.28,2.6.68,3.84,1.2,1.05.43,2.06.94,3.02,1.54.72.44,1.38.96,1.97,1.55l3.46-6.07c-2.22-1.57-4.65-2.83-7.23-3.76-2.92-1.04-6.02-1.56-9.13-1.51-2.32-.02-4.63.29-6.85.92-2.01.56-3.89,1.49-5.53,2.74-1.56,1.2-2.81,2.74-3.67,4.49-.92,1.91-1.37,4-1.34,6.1-.05,1.62.25,3.23.89,4.72.62,1.31,1.54,2.48,2.68,3.4,1.34,1.06,2.84,1.9,4.46,2.48,2.05.76,4.15,1.42,6.28,1.95,2.08.52,3.94,1.02,5.56,1.48,1.43.39,2.82.92,4.14,1.58,1.01.5,1.89,1.21,2.58,2.08.62.87.93,1.91.89,2.97.09,1.82-.83,3.55-2.41,4.53-2.05,1.14-4.4,1.68-6.76,1.55-1.84,0-3.67-.21-5.45-.63-1.66-.38-3.28-.89-4.85-1.52-1.34-.53-2.63-1.18-3.84-1.95-.9-.56-1.74-1.2-2.51-1.91l-3.53,6.33c2.79,2.09,5.94,3.68,9.3,4.72,3.44,1.08,7.04,1.63,10.66,1.62,2.29,0,4.57-.25,6.79-.76,2-.45,3.9-1.26,5.6-2.38,1.61-1.07,2.93-2.51,3.84-4.2,1.01-1.94,1.5-4.1,1.43-6.27.06-1.87-.33-3.72-1.16-5.41-.77-1.45-1.87-2.7-3.22-3.66-1.54-1.07-3.23-1.91-5.03-2.48-1.97-.66-4.13-1.3-6.48-1.92-1.99-.48-3.73-.93-5.23-1.35-1.29-.34-2.55-.81-3.73-1.41-.89-.44-1.65-1.09-2.23-1.88-.53-.84-.79-1.82-.75-2.81-.09-1.88.77-3.68,2.31-4.82,2.01-1.28,4.39-1.89,6.79-1.74"/><path id="Path_1299" d="m339.42,673.88v-6.53h-32.45v46.86h33.07v-6.54h-25.46v-14.32h21.53v-6.14h-21.53v-13.33h24.85Z"/><path id="Path_1300" d="m362.57,697.89h13.03c2.06.02,4.09-.42,5.94-1.3,1.75-.83,3.31-2,4.58-3.43,2.6-2.95,4.02-6.71,4.02-10.6,0-1.91-.39-3.81-1.12-5.58-.73-1.79-1.77-3.45-3.09-4.89-1.33-1.44-2.93-2.62-4.72-3.47-1.87-.88-3.93-1.33-6.01-1.3h-20.22v46.86h7.59v-16.29Zm0-24.03h12.16c1,0,1.98.22,2.88.62.94.43,1.78,1.04,2.48,1.79.74.8,1.32,1.73,1.7,2.74.42,1.14.63,2.35.61,3.56.01,1.19-.17,2.37-.54,3.5-.33,1-.84,1.94-1.49,2.77-.61.77-1.39,1.4-2.27,1.85-.92.45-1.93.67-2.95.66h-12.56v-17.49Z"/><path id="Path_1301" d="m435.83,714.22h7.67v-46.86h-7.67v19.6h-24.29v-19.62h-7.59v46.86h7.59v-20.65h24.31l-.02,20.67Z"/><path id="Path_1302" d="m464.38,667.29c-.82-.45-1.7-.77-2.61-.96-.92-.19-1.85-.29-2.78-.29v5.28c.4.03.8.15,1.16.33.53.28.83.86.75,1.44v7.2h6.25v-8.45c.03-.98-.24-1.95-.79-2.77-.51-.74-1.18-1.35-1.97-1.79"/><path id="Path_1303" d="m513.06,692c-1.54-1.07-3.23-1.91-5.03-2.48-1.97-.66-4.13-1.3-6.48-1.92-1.99-.48-3.73-.93-5.23-1.35-1.29-.34-2.55-.81-3.73-1.41-.89-.44-1.65-1.09-2.23-1.88-.53-.84-.79-1.82-.75-2.81-.09-1.88.77-3.68,2.31-4.82,2.01-1.28,4.39-1.89,6.79-1.74,1.5,0,3,.15,4.46.46,1.32.28,2.6.68,3.84,1.2,1.05.43,2.06.94,3.02,1.54.72.44,1.38.96,1.97,1.55l3.46-6.07c-2.22-1.57-4.65-2.83-7.23-3.76-2.92-1.04-6.02-1.56-9.13-1.51-2.32-.02-4.63.29-6.85.92-2.01.56-3.89,1.49-5.53,2.74-1.56,1.2-2.81,2.74-3.67,4.49-.92,1.91-1.37,4-1.34,6.1-.05,1.62.25,3.23.89,4.72.62,1.31,1.54,2.48,2.68,3.4,1.34,1.06,2.84,1.9,4.46,2.48,2.05.76,4.15,1.42,6.28,1.95,2.08.52,3.94,1.02,5.56,1.48,1.43.39,2.82.92,4.14,1.58,1.01.5,1.89,1.21,2.58,2.08.62.87.93,1.91.89,2.97.09,1.82-.83,3.55-2.41,4.53-2.05,1.14-4.4,1.68-6.76,1.55-1.84,0-3.68-.2-5.47-.62-1.66-.38-3.28-.89-4.85-1.52-1.34-.53-2.63-1.18-3.84-1.95-.9-.56-1.74-1.2-2.51-1.91l-3.53,6.33c2.79,2.09,5.94,3.68,9.3,4.72,3.44,1.08,7.04,1.63,10.66,1.62,2.29,0,4.57-.25,6.79-.76,2-.45,3.9-1.26,5.6-2.38,1.61-1.07,2.93-2.51,3.84-4.2,1.01-1.94,1.5-4.1,1.43-6.27.06-1.87-.33-3.72-1.16-5.41-.77-1.45-1.87-2.7-3.22-3.66"/><path id="Path_1304" d="m141.03,782.94c-.91.93-1.95,1.74-3.09,2.41-1.1.63-2.29,1.1-3.53,1.38-1.17.28-2.37.42-3.57.43-2.12.02-4.22-.46-6.11-1.41-1.85-.94-3.49-2.23-4.82-3.8-1.38-1.63-2.45-3.48-3.15-5.48-.75-2.09-1.13-4.29-1.12-6.51,0-2.06.33-4.11.95-6.07.61-1.98,1.57-3.83,2.85-5.48,1.27-1.62,2.88-2.95,4.72-3.9,2-1.02,4.23-1.53,6.48-1.49,1.16,0,2.32.13,3.46.36,1.2.25,2.35.66,3.43,1.22,1.15.6,2.19,1.38,3.09,2.31,1,1.04,1.81,2.25,2.38,3.57l5.97-3.9c-1.56-3.05-3.97-5.61-6.96-7.38-3.34-1.96-7.19-2.95-11.1-2.84-3.36-.06-6.68.64-9.71,2.05-2.76,1.3-5.22,3.13-7.23,5.38-1.97,2.22-3.49,4.77-4.51,7.52-1.02,2.7-1.55,5.55-1.56,8.42,0,3.01.57,6,1.66,8.81,1.07,2.83,2.66,5.45,4.69,7.73,2,2.26,4.42,4.13,7.14,5.51,2.83,1.43,5.98,2.15,9.17,2.12,1.95,0,3.88-.25,5.77-.72,1.92-.47,3.77-1.19,5.5-2.12,1.71-.91,3.27-2.06,4.65-3.4,1.38-1.33,2.47-2.91,3.23-4.65l-6.32-3.5c-.58,1.29-1.38,2.47-2.37,3.5"/><path id="Path_1305" d="m204.07,779.04c1.15-2.86,1.74-5.91,1.73-8.98-.03-5.98-2.25-11.76-6.25-16.31-2.01-2.25-4.44-4.1-7.17-5.45-2.87-1.4-6.05-2.11-9.27-2.07-3.17-.03-6.3.64-9.17,1.95-2.76,1.26-5.23,3.05-7.26,5.25-2.05,2.23-3.68,4.8-4.79,7.59-1.15,2.86-1.74,5.91-1.73,8.98,0,3,.55,5.97,1.63,8.77,1.05,2.8,2.63,5.39,4.65,7.63,2.02,2.22,4.46,4.04,7.2,5.35,5.83,2.65,12.55,2.67,18.4.06,2.73-1.26,5.19-3.03,7.23-5.21,2.06-2.21,3.68-4.77,4.79-7.56m-7.03-2.84c-.66,1.98-1.65,3.83-2.95,5.48-1.28,1.62-2.9,2.96-4.75,3.93-1.95,1.01-4.14,1.52-6.35,1.48-2.17.03-4.32-.45-6.25-1.41-1.84-.93-3.46-2.22-4.75-3.8-1.34-1.63-2.37-3.49-3.02-5.48-1.4-4.1-1.41-8.53-.03-12.64.64-1.97,1.64-3.82,2.95-5.45,1.3-1.59,2.91-2.9,4.75-3.86,3.93-1.95,8.58-1.98,12.53-.06,1.83.93,3.45,2.21,4.75,3.76,1.34,1.62,2.37,3.45,3.05,5.41.73,2.07,1.1,4.25,1.09,6.44,0,2.11-.35,4.2-1.02,6.2"/><path id="Path_1306" d="m254.01,786.91h-25.88v-40.35h-7.59v46.86h33.47v-6.51Z"/><path id="Path_1307" d="m274.99,746.56h-7.59v46.86h33.47v-6.53h-25.88v-40.33Z"/><path id="Path_1308" d="m346.68,753.1v-6.54h-32.45v46.86h33.04v-6.53h-25.43v-14.32h21.53v-6.14h-21.53v-13.33h24.84Z"/><path id="Path_1309" d="m385.39,775.22h10.12v4.96c-3.03,4.19-7.91,6.75-13.17,6.94-2.1.02-4.17-.45-6.04-1.35-1.85-.89-3.5-2.14-4.85-3.66-1.42-1.59-2.51-3.43-3.24-5.41-.78-2.14-1.17-4.4-1.16-6.67,0-2.2.35-4.38,1.05-6.47.66-1.97,1.67-3.82,2.99-5.45,1.27-1.55,2.86-2.83,4.65-3.76,1.86-.96,3.94-1.44,6.04-1.42,2.61-.02,5.18.64,7.43,1.91,2.32,1.37,4.17,3.36,5.33,5.75l5.85-4.1c-1.57-3.06-4-5.64-7-7.43-6.29-3.39-13.85-3.73-20.43-.92-2.72,1.22-5.15,2.95-7.17,5.11-6.39,6.96-8.22,16.82-4.75,25.52,1.1,2.81,2.71,5.4,4.75,7.66,2,2.21,4.43,4.03,7.14,5.35,2.72,1.33,5.73,2.02,8.78,2,5.3-.02,10.32-2.27,13.79-6.16v5.81h6.39v-23.69h-16.51v5.48Z"/><path id="Path_1310" d="m425.1,772.57h21.53v-6.14h-21.53v-13.33h24.85v-6.54h-32.45v46.86h33.07v-6.53h-25.46v-14.31Z"/><path id="Path_1311" d="m175.11,836.02h-3.8v23.43h16.74v-3.26h-12.94v-20.17Z"/><path id="Path_1312" d="m211.81,839.62c-1-1.12-2.21-2.05-3.57-2.72-1.44-.7-3.03-1.06-4.64-1.04-1.58-.02-3.15.32-4.58.98-1.38.62-2.61,1.51-3.63,2.6-1.03,1.12-1.84,2.4-2.4,3.8-.58,1.43-.87,2.95-.87,4.48,0,1.5.27,2.99.81,4.4.53,1.4,1.32,2.69,2.33,3.81,1.01,1.11,2.23,2.01,3.59,2.67,1.44.68,3.03,1.03,4.64,1.01,1.58.01,3.14-.32,4.56-.97,1.37-.63,2.59-1.52,3.61-2.6,2.1-2.26,3.26-5.2,3.26-8.24-.02-2.99-1.12-5.88-3.12-8.16m-1.25,11.22c-.33.99-.83,1.91-1.48,2.74-.64.81-1.45,1.49-2.37,1.97-1.98.98-4.31.99-6.3.03-.92-.47-1.73-1.12-2.37-1.9-.67-.82-1.18-1.74-1.51-2.74-.35-1.03-.53-2.12-.52-3.21,0-1.06.17-2.11.5-3.11.32-.99.82-1.91,1.48-2.72.65-.8,1.45-1.46,2.37-1.94.98-.5,2.07-.76,3.17-.74,1.07-.01,2.13.23,3.09.71.92.47,1.73,1.11,2.38,1.89.67.81,1.19,1.72,1.53,2.71.36,1.03.55,2.12.54,3.21,0,1.05-.17,2.1-.5,3.11"/><path id="Path_1313" d="m240.1,856.54c.68-.67,1.23-1.46,1.61-2.33l-3.16-1.74c-.29.64-.69,1.23-1.19,1.74-.46.47-.97.87-1.54,1.2-.56.32-1.16.55-1.78.7-.59.13-1.18.2-1.78.21-1.06,0-2.11-.24-3.06-.71-.92-.47-1.74-1.11-2.41-1.9-.69-.81-1.23-1.74-1.58-2.74-.38-1.05-.57-2.16-.56-3.27,0-1.03.16-2.05.48-3.04.31-.99.79-1.92,1.42-2.74.63-.81,1.44-1.48,2.36-1.97,1-.51,2.11-.76,3.24-.74.58,0,1.17.06,1.74.18.6.13,1.17.34,1.71.61,1.23.65,2.19,1.69,2.73,2.94l2.99-1.95c-.77-1.53-1.98-2.81-3.48-3.69-1.67-.98-3.6-1.48-5.56-1.43-1.68-.03-3.34.32-4.85,1.03-1.38.64-2.61,1.56-3.61,2.69-.99,1.1-1.75,2.38-2.26,3.76-.51,1.35-.78,2.77-.79,4.21.01,3.04,1.14,5.97,3.17,8.27,1,1.13,2.21,2.07,3.57,2.76,1.42.71,2.99,1.07,4.58,1.05.97,0,1.94-.12,2.88-.36.96-.24,1.88-.59,2.75-1.05.85-.46,1.64-1.03,2.32-1.7"/><path id="Path_1314" d="m264.63,859.46h3.84v-23.43h-3.84v9.8h-12.15v-9.8h-3.8v23.43h3.8v-10.33h12.15v10.33Z"/><rect id="Rectangle_335" x="277.29" y="836.06" width="3.8" height="23.4"/><path id="Path_1315" d="m306.69,852.92l-13.78-16.92h-2.99v23.43h3.8v-16.49l13.65,16.49h3.16v-23.38h-3.84v16.87Z"/><path id="Path_1316" d="m328.12,854.8l-7.3-18.78h-4.04l9.71,23.43h3.26l9.61-23.43h-4.02l-7.22,18.78Z"/><path id="Path_1317" d="m351.02,836.02l-9.71,23.43h4.08l2.51-6.37h9.31l2.58,6.37h4.04l-9.67-23.43h-3.14Zm-2.45,14.32l4.02-10.2,3.87,10.2h-7.89Z"/><path id="Path_1318" d="m385.3,849.54c.58-.45,1.09-.99,1.49-1.6.41-.63.73-1.31.95-2.02.23-.74.34-1.51.34-2.28,0-.96-.19-1.9-.56-2.79-.36-.9-.89-1.72-1.55-2.44-.66-.72-1.46-1.31-2.36-1.74-.94-.44-1.96-.67-3-.66h-10.49v23.43h3.8v-8.15h5.57l5.3,8.15h4.32l-5.73-8.91c.7-.22,1.35-.56,1.93-1.01m-3.24-1.85c-.45.24-.96.36-1.48.35h-6.65v-8.75h6.44c.5,0,1,.12,1.45.34.47.24.88.56,1.22.94.36.41.64.88.84,1.39.22.54.33,1.11.32,1.68,0,.57-.08,1.14-.27,1.68-.17.51-.42.98-.75,1.41-.3.39-.69.72-1.14.95"/><path id="Path_1319" d="m246.52,890.43h-3.79c-.17.2-.34.39-.54.56-.4.39-.84.75-1.3,1.07-.55.4-1.13.75-1.74,1.05-.57.3-1.21.47-1.86.48v3.35c.52-.01,1.02-.11,1.5-.3.56-.2,1.1-.45,1.62-.74.5-.27.97-.58,1.42-.92.34-.24.64-.53.89-.87v16.64h-4.66v3.25h12.73v-3.25h-4.28v-20.32Z"/><path id="Path_1320" d="m272.43,903.7c-.38-.49-.83-.93-1.34-1.3-.49-.35-1.02-.65-1.57-.9.95-.4,1.79-1.02,2.42-1.82.65-.79,1.01-1.77,1-2.78.02-.94-.23-1.87-.71-2.68-.47-.77-1.09-1.43-1.84-1.95-.77-.53-1.62-.94-2.52-1.2-1.78-.55-3.7-.55-5.48,0-.91.27-1.76.68-2.52,1.22-.75.53-1.37,1.2-1.84,1.97-.49.81-.73,1.74-.71,2.68-.01,1,.34,1.98.98,2.76.62.79,1.44,1.41,2.37,1.81-.52.24-1.01.53-1.47.87-.49.36-.93.77-1.32,1.23-.4.48-.73,1.02-.97,1.59-.25.61-.38,1.26-.37,1.91,0,.99.22,1.96.66,2.86.44.87,1.06,1.64,1.81,2.26.8.66,1.72,1.16,2.71,1.5,1.08.37,2.21.55,3.35.54,1.13,0,2.25-.16,3.33-.49,1-.3,1.93-.78,2.74-1.41.77-.6,1.41-1.36,1.86-2.21.47-.89.7-1.88.69-2.88,0-.66-.11-1.32-.34-1.94-.22-.58-.52-1.13-.89-1.63m-11.04-7.94c.22-.39.52-.74.89-1,.39-.28.82-.5,1.29-.64.5-.15,1.01-.23,1.54-.23.52,0,1.04.07,1.54.21.46.13.9.34,1.29.62.36.26.67.6.89.98.23.4.34.85.34,1.3,0,.49-.12.98-.37,1.4-.24.4-.56.74-.95,1.02-.39.27-.82.48-1.29.62-.46.14-.94.21-1.42.21-.49,0-.97-.07-1.44-.21-.46-.13-.9-.34-1.3-.61-.38-.26-.7-.6-.95-.99-.26-.42-.39-.9-.37-1.38,0-.45.11-.9.32-1.3m8.13,12.89c-.27.48-.64.91-1.08,1.25-.46.36-.99.64-1.54.82-.57.2-1.18.3-1.78.3-.59,0-1.18-.1-1.74-.28-.55-.18-1.07-.44-1.54-.79-.45-.34-.82-.76-1.1-1.25-.29-.51-.45-1.08-.45-1.66-.01-.58.13-1.15.4-1.66.27-.49.63-.92,1.07-1.27.45-.36.97-.63,1.52-.8.57-.19,1.18-.28,1.78-.28.59,0,1.18.09,1.74.26.56.17,1.09.44,1.56.79.46.35.84.78,1.12,1.27.29.52.43,1.1.42,1.69,0,.56-.13,1.11-.4,1.61"/><path id="Path_1321" d="m296.56,903.7c-.38-.49-.83-.93-1.34-1.3-.49-.35-1.02-.65-1.57-.9.95-.4,1.79-1.02,2.42-1.82.65-.79,1.01-1.77,1-2.78.02-.94-.23-1.87-.71-2.68-.47-.77-1.09-1.43-1.84-1.95-.77-.53-1.62-.94-2.52-1.2-1.78-.55-3.7-.55-5.48,0-.91.27-1.76.68-2.52,1.22-.75.53-1.37,1.2-1.84,1.97-.48.81-.73,1.74-.71,2.68-.01,1,.34,1.98.98,2.76.62.79,1.44,1.41,2.37,1.81-.52.24-1.01.53-1.47.87-.49.36-.93.77-1.32,1.23-.4.48-.73,1.02-.97,1.59-.25.61-.38,1.26-.37,1.91,0,.99.22,1.96.66,2.86.44.87,1.06,1.64,1.81,2.26.8.66,1.72,1.16,2.71,1.5,1.08.37,2.21.55,3.35.54,1.13,0,2.25-.16,3.33-.49,1-.3,1.93-.78,2.74-1.41.77-.6,1.41-1.36,1.86-2.21.47-.89.7-1.88.69-2.88,0-.66-.11-1.32-.34-1.94-.22-.58-.52-1.13-.89-1.63m-11.04-7.94c.22-.39.52-.74.89-1,.39-.28.82-.5,1.29-.64.5-.15,1.01-.23,1.54-.23.52,0,1.04.07,1.54.21.46.13.9.34,1.29.62.36.26.67.6.89.98.23.4.34.85.34,1.3,0,.49-.12.98-.37,1.4-.24.4-.56.74-.95,1.02-.39.27-.82.48-1.29.62-.46.14-.94.21-1.42.21-.49,0-.97-.07-1.44-.21-.46-.13-.9-.34-1.3-.61-.38-.26-.7-.6-.95-.99-.26-.42-.39-.9-.37-1.38,0-.45.11-.9.32-1.3m8.13,12.89c-.27.48-.64.91-1.08,1.25-.46.36-.99.64-1.54.82-.57.2-1.18.3-1.78.3-.59,0-1.18-.1-1.74-.28-.55-.18-1.07-.44-1.54-.79-.45-.34-.82-.76-1.1-1.25-.29-.51-.45-1.08-.45-1.66-.01-.58.13-1.15.4-1.66.27-.49.63-.92,1.07-1.27.45-.36.97-.63,1.52-.8.57-.19,1.18-.28,1.78-.28.59,0,1.18.09,1.74.26.56.17,1.09.44,1.56.79.46.35.84.78,1.12,1.27.29.52.43,1.1.42,1.69,0,.56-.13,1.11-.4,1.61"/><path id="Path_1322" d="m319.63,903.94c-.95-1.11-2.28-1.86-3.74-2.1,1.28-.24,2.46-.86,3.38-1.77.83-.89,1.26-2.06,1.22-3.26,0-.88-.21-1.76-.62-2.54-.43-.79-1.02-1.48-1.73-2.04-.78-.61-1.67-1.07-2.61-1.36-1.06-.34-2.17-.5-3.28-.49-.8,0-1.59.09-2.36.25-.77.16-1.51.39-2.23.69-.68.28-1.31.66-1.89,1.1-.54.42-1.01.92-1.39,1.48l2.44,2.6c.2-.4.46-.76.77-1.08.36-.36.76-.68,1.2-.94.49-.29,1.02-.5,1.58-.65.63-.17,1.28-.26,1.93-.25.52,0,1.04.07,1.54.21.49.14.96.36,1.37.66.4.29.73.66.98,1.08.25.45.38.95.37,1.46,0,.56-.16,1.1-.47,1.56-.34.47-.8.85-1.34,1.1-.66.31-1.36.52-2.08.64-.88.15-1.78.22-2.68.21h-1.13v3.06h1.14c1.82-.09,3.63.24,5.3.95,1.17.48,1.92,1.6,1.91,2.83.01.53-.12,1.05-.39,1.51-.27.44-.63.83-1.06,1.13-.48.33-1.02.58-1.59.72-.64.17-1.3.25-1.96.25-.81.01-1.61-.12-2.37-.38-.64-.22-1.24-.54-1.78-.94-.46-.33-.86-.75-1.16-1.23-.24-.39-.41-.82-.5-1.26l-2.03,2.3c.43,1.48,1.41,2.75,2.76,3.56,1.55.91,3.34,1.36,5.15,1.3,1.11,0,2.21-.15,3.28-.43,1-.25,1.95-.66,2.8-1.23.8-.53,1.47-1.23,1.97-2.03.5-.85.76-1.81.74-2.79,0-1.41-.5-2.78-1.4-3.88"/><path id="Path_1323" d="m228.77,153.46l-50.22,24.38v43.89l46.91-18.77,3.31-49.5Zm-10.67,43.55l-10.3,3.83v-2.58l3.64-1.33-2.14-4.74-11.49,4.05-2.4,6.55,3.76-1.38v2.63l-9.99,3.71v-2.69l2.82-1.03,9.85-26.36,3.9-1.21,9.54,19.06,2.82-1.03v2.52Z"/><path id="Path_1324" d="m198.92,193.22l9.3-3.22-4.61-9.33-4.69,12.55Z"/><path id="Path_1325" d="m273.73,147.9v-75.11h-2.28c-34.43-.07-68.81,2.4-102.86,7.38-5.35.8-10.91,1.7-16.48,2.68-10.71,1.89-21.35,4.06-31.68,6.46-9.17,2.15-18.32,4.52-27.16,7.05-.32.09-.62.18-.93.28v179.57h58.01c9.49-6.03,20.75-14.95,25.71-25.65,0,0,18.07,17.56,53.92,21.42,4.59-18.89,19.17-33.97,38.27-39.59-2.47-20.92-10.01-40.97-22-58.5,12.28-5.28,21.57-16.69,27.5-25.99m-141.01-14.72c7.54,3.07,14.8,6.78,21.67,11.09,8.53,5.25,16.02,11.96,22.09,19.8,5.96-7.93,13.34-14.74,21.8-20.11,6.81-4.4,14.01-8.21,21.5-11.39.13,1.69.27,3.38.41,5.08-7.59,3.17-14.9,6.93-21.87,11.24-7.56,4.68-14.85,9.75-21.84,15.19-7.08-5.35-14.46-10.32-22.09-14.89-7.03-4.21-14.4-7.87-22.03-10.94.11-1.69.22-3.39.33-5.08m-8.92,5.18c10.58,4.3,20.82,9.34,30.64,15.1,7.88,4.61,15.27,9.96,22.06,15.98,6.71-6.12,14.02-11.57,21.84-16.28,9.74-5.89,19.9-11.08,30.42-15.52l.5,6.18-30.88,15-21.87,10.63h0l-22.02-10.33-31.09-14.58.4-6.18Zm105.72,67.44l-52.57,21.03-52.88-20.31-4.8-59.17,57.3,26.86,56.9-27.64-3.95,59.23Z"/><path id="Path_1326" d="m128.11,203.63l46.09,17.72v-43.68l-50.11-23.5,4.02,49.45Zm9.17-8.68c0-1.79,1.28-1.44,1.67-1.3,1.06.41,1.74,1.44,1.67,2.55v.63l4.66,1.74v-.53c-2.42-1.58-4.43-3.68-5.88-6.14-1.38-2.37-2.11-5.05-2.13-7.78-.35-3.02,1.18-5.96,3.9-7.46,2.86-1.27,6.14-1.27,9,0,3.64,1.4,6.79,3.78,9.1,6.86,2.39,2.91,3.73,6.5,3.8,10.22.15,2.26-.61,4.48-2.13,6.19-1.58,1.42-3.75,2.06-5.88,1.74v.61l4.66,1.74v-.63c0-1.79,1.28-1.44,1.67-1.3,1.06.41,1.74,1.44,1.67,2.55v3.91l-11.37-4.25v-6.43l.63.13c1.85.62,3.9.36,5.52-.71,1.32-1.22,2-2.96,1.85-4.73-.07-2.59-.92-5.1-2.45-7.22-1.69-2.5-4.18-4.39-7.09-5.38-2.21-1.23-4.93-1.2-7.11.08-1.66,1.31-2.57,3.31-2.45,5.39.01,2.17.66,4.29,1.86,6.11,1.38,2.05,3.27,3.71,5.51,4.82l.63.33v6.41l-11.35-4.23v-3.9Z"/><path id="Path_1327" d="m273.73,574.56c-5.93-9.3-15.21-20.71-27.49-25.99,0,0,22.8-157.64,22.8-204.56l-.06-.58c-21.82-6.22-37.72-24.51-40.38-46.47-34.71,4.15-52.56,21.26-52.56,21.26-5.8-12.75-18.77-22.2-28.63-27.88h-55.07v112.62c0,120.94,139,188.72,181.39,206.58v-34.98Zm-132.62-140.43l-8.56-5.15-5.95,7.89-1.2-9.71-10.05.4,7.06-6.99-6.59-7.38,10.01,1.02,1.83-9.61,5.42,8.24,8.88-4.6-3.25,9.25,9.23,3.88-9.47,3.3,2.63,9.44Zm18.88-75.25l8.21-5.25-4.74-8.36,9.34,2.96,3.77-8.82,3.44,8.95,9.44-2.63-5.04,8.2,8.01,5.54-9.74,1.27.54,9.55-7.09-6.61-7.33,6.36.89-9.51-9.68-1.63Zm34.62,167.21l-8.17-5.31-6.08,7.5-.83-9.52-9.82.05,7.14-6.56-6.17-7.43,9.73,1.33,2.13-9.32,4.99,8.24,8.81-4.23-3.51,8.93,8.88,4.1-9.37,2.9,2.26,9.32Zm24.46-71.16l-5.23-2.79-5.33,2.6,1.11-5.7-4.19-4.13,5.92-.73,2.74-5.15,2.55,5.25,5.89.94-4.35,3.97.9,5.74Zm17.53-36.25l-7.86,6.82.95-10.2-10.39-1.74,8.8-5.64-5.08-8.97,10.02,3.18,4.05-9.46,3.69,9.6,10.13-2.82-5.41,8.79,8.59,5.94-10.44,1.36.58,10.23-7.61-7.09Z"/><path id="Path_1328" d="m386.12,318.23s-17.85-17.15-52.65-21.26c-2.66,21.97-18.56,40.27-40.39,46.48l-.05.58c0,46.92,22.81,204.56,22.81,204.56-11.72,5.13-21.36,17.21-27.55,26.77v34.23c42.34-17.84,181.39-85.62,181.39-206.6v-112.63h-54.93c-9.85,5.68-22.84,15.13-28.63,27.87m-29.09,29.4c1.84-1.59,4.15-2.6,6.6-2.87,3.41-.35,6.76-1.15,9.96-2.36.59-.23,1.18-.48,1.78-.74,1.37-.66,2.81-1.15,4.3-1.48.7-.15,1.42-.23,2.13-.26.28,0,.56.02.84.08,1.69.19,3.29.86,4.59,1.92,1.5.9,2.05,2.75,1.29,4.3-.61,1.57-1.4,3.06-2.35,4.46-.45.72-.89,1.44-1.34,2.17-1.36,2.28-2.26,4.79-2.64,7.4-.3,2.87-.43,5.75-.39,8.63,0,1.76,0,3.51-.1,5.28-.08,1.28-.26,2.56-.55,3.81-.12-.13-.24-.23-.35-.36-2.4-3.24-4.1-6.92-5-10.82-.21-1.17-.27-1.97-.27-1.97,0,0,2.55-3.41.97-3.94-.52-.09-1.05.07-1.41.43-.29-3.37-.48-6.83-.48-6.83,0,0,.7-2.68-.64-2.97s-2.34,2.08-2.45,3.81c.09,1.8-.29,3.59-1.1,5.21-.89.95.94,2.97,2.1,1.38.74-1.14,1.17-2.44,1.27-3.79,0,0-.06,2.07.08,4.43-.55.66-1.06,1.37-1.45,1.87-.98.97-.97,2.54.03,3.49.1.1.22.19.34.27,1.34.76,1.76-.97,1.76-.97l.17,1.1c.48,2.38,1.12,4.72,1.9,7.02.65,1.54,1.55,2.97,2.68,4.23-.89-.87-1.78-1.71-2.61-2.6-1.6-1.74-3.08-3.64-4.52-5.48-1.27-1.64-2.54-3.27-3.92-4.82l-.17-.17c-.44-.9-.83-1.82-1.16-2.76,0,0,.89-.33-.04-2.2-1.15-.24-2.26-.64-3.28-1.2-1.07-.59-1.48.19-1.61,1.11l-.04-.03c-1.72-1.13-3.37-2.36-4.94-3.68-1.56-1.24-2.48-3.09-2.53-5.05.08-1.96,1.01-3.8,2.57-5.05m23.9,37.75c2.33-.75,4.77-1.15,7.22-1.21,1.2,0,2.4.13,3.57.41,1.99.46,3.56,1.95,4.07,3.88.49,1.52.68,3.11.55,4.7-.05.73-.08,1.47-.1,2.21-.01,1.64-.16,3.28-.45,4.89l-.19.97c-.79,4.74-1.98,9.41-3.57,13.96-.92,2.43-1.84,2.43-2.14,2.43-.96-.13-1.84-.56-2.53-1.21-2.27-1.84-4.43-3.81-6.47-5.88-.74-.72-1.48-1.44-2.23-2.17-2.4-2.22-4.57-4.67-6.45-7.32-.81-1.1-1.44-2.33-1.84-3.63-.69-2.57.12-5.31,2.12-7.12,2.25-2.4,5.19-4.1,8.43-4.89m-5.86-3.11c-2.65-1.65-4.87-3.87-6.49-6.48-.97-1.49-1.69-3.12-2.16-4.82-.21-.53-.37-.95-.52-1.3.55.67,1.1,1.38,1.63,2.13,1.93,2.88,4.14,5.57,6.6,8.05,1.04,1.01,2.14,1.97,3.26,2.92-.45.07-.87.06-1.3.1-.32-.18-.64-.36-1.01-.6m-42.84-1.58c-.83-3.5-.62-7.16.61-10.56.91-2.41,2.36-4.58,4.24-6.38,1.79-1.9,4.05-3.33,6.56-4.13,1.07-.36,2.2-.54,3.34-.53,1.51.03,3.01.25,4.46.65,2.69.83,5.21,2.11,7.46,3.76l.82.53c1.94,1.27,3.7,2.8,5.22,4.54-.2-.06-.42-.09-.63-.08-1.19,0,.2,2.82.2,2.82.06,1.93.45,3.83,1.13,5.64.62,1.4,1.98,2.79,2.1,1.38.12-1.41,2.56,2.31,4.97,4.15.25.2.51.33.77.49-.28,0-.55,0-.83-.04-.58-.05-1.16-.15-1.74-.23l-.82-.11c-5.85-.97-11.61-2.41-17.22-4.31-3.57-1.28-7.31-2.04-11.11-2.26h-.48c-2.08.04-4.13.53-5.99,1.46-1.37.73-2.46,1.87-3.12,3.24m10.37,33.5c-.33.11-.68.18-1.03.19-.35,0-.93,0-1.38-1.43-1.47-4.5-1.91-9.26-1.29-13.94.41-3.97,2.26-7.66,5.22-10.41,1.55-1.49,3.35-2.72,5.32-3.62,1.49-.62,3.1-.91,4.73-.87.93,0,1.87.07,2.79.15,3.32.37,6.62.93,9.88,1.66,1.64.36,3.3.6,4.97.74-1.07.8-2.07,1.68-2.98,2.65-1.95,1.92-3.7,4.02-5.23,6.28-1.91,3-4.01,5.88-6.29,8.63-1.93,2.35-4.21,4.39-6.77,6.07-2.45,1.64-5.13,2.93-7.95,3.85m9.69,5.84c2.33.92,4.61,1.93,6.9,2.95l2.18.97c3.77,1.74,7.35,3.83,10.68,6.26,2.68,1.9,5.13,4.09,7.32,6.51,3.18,3.35,5.71,7.24,7.45,11.48,1.77,4.12,2.73,8.53,2.83,12.99.07,3.55-.15,7.09-.65,10.61-.39,2.26-.91,4.49-1.55,6.69l-.58,2.2c-1.08,3.69-2.5,7.29-4.23,10.74l-.85,1.85c-.98,2.14-2.18,4.22-3.35,6.23-.48.83-.96,1.66-1.43,2.49-2.19,3.76-4.59,7.4-7.21,10.89,0,0-1.58,2.2-2.03,2.82.53-1.01,1.04-2.02,1.53-3.04l.21-.43c2.07-4.08,3.83-8.29,5.28-12.61,1.34-4.3,2.23-7.65,2.94-10.85,1.25-6.03,1.77-12.17,1.57-18.31-.13-2.87-.48-5.73-1.06-8.55l-.31-1.74c-.69-3.47-1.73-6.87-3.12-10.14-1.21-3.03-2.68-5.96-4.4-8.76-.64-1.07-1.34-2.08-2.04-3.11s-1.37-2-2-3.04c-.26-.4-.56-.77-.89-1.11-.19-.19-.36-.39-.52-.6-1.77-2.34-3.7-4.56-5.77-6.65-2.33-2.44-4.79-4.76-7.36-6.95l.45.18m50.27,51.98c-.14.56-.31,1.12-.45,1.67-.33,1.04-.6,2.1-.81,3.18-.25,1.15-.61,2.27-1.07,3.35-.18.43-.35.92-.51,1.37-.36,1.01-1.78,4.82-1.78,4.82-2.27,6.22-5.01,12.27-8.2,18.09-3.53,5.93-7.68,11.49-12.37,16.6-3.37,3.13-6.95,6.04-10.71,8.71-4.45,3.23-9.47,5.63-14.81,7.1,2.51-2,5.09-4.08,7.52-6.27.83-.66,1.14-1.76.77-2.73-.31-1.03-.71-2.03-1.1-3.04-.24-.61-.47-1.21-.69-1.83-.33-.9-.58-1.83-.83-2.75-.23-.84-.45-1.67-.74-2.49-1.33-4.05-2.31-8.2-2.93-12.4-1.43-7.47-1.56-15.12-.39-22.63.79-4.09,2.15-8.05,4.04-11.78,1.33-2.59,2.9-5.05,4.67-7.38.82-1.07,1.7-2.08,2.65-3.04.58-.61,1.16-1.23,1.71-1.87.91-1,1.9-1.92,2.95-2.76.74-.62,1.47-1.23,2.16-1.9,1.54,4.28,2.49,8.73,2.84,13.25.17,1.99.18,3.99.05,5.99,0,.29-.12.57-.33.77-3.22,2.96-6.1,6.27-8.56,9.86-4.2,6.28-6.63,13.52-7.05,21-.19,4.91.09,9.82.82,14.67l.25,1.98c.16,1.3.31,2.64.54,3.95l.62,3.47,1.78-1.49c.32-.23.62-.49.89-.78l2.16-2.36c2-2.17,4.08-4.44,6-6.78l.5-.61c1.55-1.81,3.01-3.69,4.36-5.64.58-.87,1.19-1.74,1.78-2.57.92-1.3,1.84-2.56,2.68-3.91,2.76-4.48,5.64-9.31,8.15-14.3,2.71-5.27,5.07-10.71,7.06-16.28,1.25-3.62,2.68-7.9,3.72-12.28.08-.31.16-.36.29-.43l1.48-.7c1.3-.57,2.56-1.22,3.77-1.94-.95,5.04-1.87,9.22-2.87,13.11m27.82-46.74c-1.09,4.03-2.83,7.88-5.14,11.39-2.13,3.32-4.69,6.35-7.63,9.02-2.52,2.33-5.25,4.44-8.15,6.3-2.14,1.41-4.36,2.7-6.66,3.86l-1.59.8c-2.4,1.2-4.87,2.43-7.24,3.84-.21-3.64-.8-7.25-1.76-10.78-.66-2.62-1.77-5.12-3.3-7.38,2.8-1.7,5.56-3.35,8.3-5.04l1.16-.72c2.14-1.3,4.27-2.63,6.33-4.06,2.85-1.94,5.58-4.02,8.19-6.25,3.92-3.25,7.17-7.19,9.58-11.62,2.21-4.29,3.51-8.96,3.82-13.75.22-3.86.07-7.73-.45-11.56-.08-.78-.21-1.54-.37-2.3.7,1.54,1.37,3.25,2.05,5.15l.17.48c1.14,2.96,2.03,6.01,2.68,9.11l.4,2.14c.59,2.67.94,5.38,1.06,8.11.05,4.47-.46,8.93-1.52,13.28m-32.91-18.66s.1-.23.12-.3c1.34-3.88,2.07-7.93,2.16-12.02,1.65,4.28,3.07,8.64,4.26,13.06l.3,1.46c.71,3.44,1.45,7,1.84,10.53.16,1.38.27,2.77.39,4.16l.19,2.1-.83.99c-.85.85-1.81,1.59-2.85,2.2-.19-2.89-.62-5.76-1.29-8.59l-.45-2.12c-.51-2.31-1.19-4.58-2.03-6.8l-.54-1.58c-.3-1.08-.73-2.13-1.31-3.1m29.96-32.51c1.96,1.78,3.21,4.16,3.54,6.75.03.56-.13.64-.55.67h-.4c-.29,0-.57,0-.86-.03s-.63-.03-.95-.04h0c-2.86,0-5.71.36-8.48,1.08l-2.01.54c-2.2.64-4.44,1.17-6.69,1.58-1.12.18-2.26.27-3.4.27-2.76-.05-5.51-.45-8.16-1.21l-2.04-.56c-2.02-.55-4.09-1.12-6.2-1.55.66-.37,1.27-.79,1.88-1.2.4-.27.81-.55,1.23-.8.94-.59,1.78-1.32,2.49-2.17.45-.52.89-1.02,1.38-1.51.74-.76,1.44-1.56,2.09-2.4,1.51-1.96,3.2-3.79,5.05-5.46,1.38-1.25,3.2-1.95,5.08-1.95h.48c3.26.17,6.43,1.09,9.25,2.67,2.75,1.34,5.23,3.16,7.31,5.36m-10.2-23.94l.34.26c.03.05.06.1.11.15.06.35.23.68.47.94.49.57.85,1.24,1.05,1.96-.57-.17-1.15-.3-1.74-.39-.35-.06-.69-.11-1.02-.19-.37-.09-.76-.13-1.14-.13-1.52.05-2.97.61-4.1,1.59-1.31,1.13-2.48,2.41-3.48,3.81l-2.06,2.64c-1.55,1.97-3.15,4-4.6,6.11-1.11,1.55-2.3,3.04-3.57,4.46-.66.77-1.31,1.54-1.95,2.33-.63.71-1.33,1.36-2.1,1.93-.45.36-.89.71-1.34,1.09-1.74,1.44-3.69,2.61-5.8,3.47-.69.28-1.41.51-2.14.66l-.21.05c1.24-3.95,1.85-8.05,1.82-12.18l.04-.87c-.07-3.98.55-7.94,1.84-11.71,1.48-3.58,4.11-6.59,7.49-8.6,2.8-1.77,6.07-2.7,9.41-2.67.45,0,.89.04,1.37.08l.79.07c3.95.55,7.61,2.33,10.43,5.08l.1.05Z"/><path id="Path_1329" d="m407.06,171.16c7.91,14.86,16.14,30.32,20.83,39.22l-7.75-69.76-13.09,30.54Z"/><path id="Path_1330" d="m341.75,210.17c4.72-8.93,12.9-24.3,20.77-39.1l-13.05-30.45-7.72,69.55Z"/><path id="Path_1331" d="m366.52,171.25l18.3,42.69,18.26-42.6c-7.81-14.67-15.17-28.46-18.3-34.32-3.12,5.85-10.46,19.6-18.25,34.23m26.51-6.32h-2.82v13.45c0,4.86-2.23,7.3-6.82,7.3-4.82,0-6.9-2.26-6.9-7.26v-.14h3.28c.11,3.47,1.07,5.07,3.54,5.07,2.68,0,3.75-1.6,3.75-4.97v-13.45h-3.65v-2.33h9.61v2.33Z"/><path id="Path_1332" d="m439.6,90.16c-10.26-2.12-20.74-4.07-31.09-5.8-5.19-.87-10.57-1.71-16.16-2.54-34.46-5.11-69.22-8.06-104.06-8.85v74.15c6.19,9.55,15.83,21.63,27.55,26.76-11.99,17.53-19.53,37.58-22,58.5,19.1,5.62,33.68,20.71,38.26,39.6,35.94-3.84,54.02-21.43,54.02-21.43,4.96,10.7,16.22,19.62,25.72,25.65h57.85V97.01c-1.14-.29-2.32-.59-3.54-.87-8.72-2.13-17.65-4.13-26.53-5.96m-70.11,107.96h-2.82v13.45c0,4.86-2.23,7.3-6.82,7.3-4.82,0-6.9-2.26-6.9-7.26v-.14h3.29c.11,3.47,1.07,5.07,3.54,5.07,2.68,0,3.75-1.6,3.75-4.97v-13.45h-3.65v-2.33h9.61v2.33Zm43.14,0h-2.82v13.45c0,4.86-2.23,7.3-6.82,7.3-4.82,0-6.9-2.26-6.9-7.26v-.14h3.29c.11,3.47,1.07,5.07,3.54,5.07,2.68,0,3.75-1.6,3.75-4.97v-13.45h-3.65v-2.33h9.61v2.33Zm31.41,25.83c-1.23,1.4-3.05,2.18-4.94,2.12-4.49-.34-8.48-2.9-10.58-6.76-1.11-2.26-12.3-23.31-23.27-43.92l-18.79,43.82c-.44.88-1.53,1.25-2.44.83-.37-.17-.67-.47-.85-.83l-18.83-43.89c-10.99,20.64-22.2,41.74-23.32,44.01-2.11,3.86-6.1,6.41-10.58,6.74-1.9.06-3.72-.72-4.96-2.12-1.63-2.33-2.35-5.15-2.01-7.95.06-.96.91-1.68,1.89-1.62.04,0,.08,0,.12.01,1.01.14,1.71,1.04,1.58,2.03-.23,1.77.17,3.57,1.12,5.1.57.62,1.4.96,2.26.89,2.76-.23,5.26-1.66,6.8-3.91v-.2l9.41-84.91c.08-.81.7-1.46,1.52-1.61.82-.11,1.61.33,1.91,1.08l14.61,34.09c9.37-17.56,17.73-33.25,18.5-34.71.5-.85,1.62-1.14,2.49-.65.28.16.51.38.67.65.77,1.44,9.17,17.19,18.55,34.78l14.65-34.18c.3-.75,1.1-1.19,1.91-1.08.82.14,1.44.8,1.51,1.61l9.43,84.91c0,.1,0,.19-.03.29,1.53,2.2,4,3.6,6.72,3.82.86.06,1.7-.27,2.27-.89.95-1.53,1.34-3.32,1.11-5.09-.13-.98.57-1.89,1.58-2.03,1.01-.08,1.89.64,1.99,1.61.34,2.8-.37,5.62-2.01,7.95"/><path id="Path_1333" d="m299.36,269.01v-3.55h-15.44v3.55h5.59v6.33h-11.04v-3.38c0-4.2-6.25-6.51-12.34-6.51-6.98,0-13.01,3.55-13.01,10.82s5.84,9.45,11.43,11.52,10.71,3.91,10.71,9.33c0,4.85-4.02,7.51-9.54,7.51-4.91,0-9.37-2.01-9.37-5.49v-3.01h-4.07v3.95c0,4.38,4.35,6.94,9.15,7.9.62,5.75,5.79,10,11.73,9.62,6.22.34,11.54-4.29,11.88-10.33,0-.08,0-.17.01-.25h29.67v-10.48h-3.89v6.92h-17.08v-34.45h5.6Zm-18.48,36.08c0,6.51-3.9,8.74-7.72,8.74-3.45.14-6.51-2.14-7.26-5.42,7.8-.06,13.73-4.42,13.73-11.69s-6.14-9.92-12.34-12.17c-5.16-1.95-9.78-3.54-9.78-8.56,0-4.43,3.77-6.73,8.63-6.73,3.83,0,8.27,1.41,8.27,4.07v2.03h-.03v3.43h6.51v26.32Zm8.64-1.51h-4.38v-24.78h4.38v24.78Z"/><path id="Path_1334" d="m47.15,53.86C12.42,62.01,0,75.17,0,75.17c2.52,5.9,26.74,19.56,26.74,19.56-5.22,10.3-9.11,21.18-11.57,32.41,45.93-23.62,68.76-23.64,68.76-23.64l-23.11-6.73-13.66-42.91Z"/><path id="Path_1335" d="m200.59,35.68c-.21-.61-.57-1.16-1.04-1.62-.47-.44-1.04-.77-1.66-.95-.7-.2-1.44-.26-2.17-.17-.76.07-1.5.29-2.18.65-.65.35-1.23.8-1.71,1.35-1,1.14-1.57,2.57-1.61,4.07-.04.71.08,1.41.35,2.07.24.59.61,1.12,1.08,1.56.47.44,1.03.76,1.65.95.66.21,1.36.28,2.05.2.81-.08,1.59-.31,2.3-.68,1.3-.7,2.3-1.82,2.81-3.18.26-.67.41-1.37.45-2.08.03-.74-.07-1.47-.32-2.17"/><path id="Path_1336" d="m307.39,38.26c.98-.7,1.8-1.59,2.43-2.6.71-1.21,1.19-2.53,1.41-3.9.27-1.3.27-2.64,0-3.94-.24-1.02-.73-1.96-1.45-2.74-.73-.75-1.64-1.32-2.64-1.66-1.15-.39-2.35-.61-3.57-.63l-5.16-.19-3.15,17.29,5.18.18c1.26.05,2.52-.07,3.75-.36,1.16-.28,2.25-.77,3.22-1.44"/><path id="Path_1337" d="m88.46,83.5c9.28-2.66,18.56-5.07,27.84-7.23,10.84-2.52,21.65-4.73,32.44-6.62,5.63-.99,11.24-1.9,16.85-2.74,86.01-12.79,167.46-7.22,227.88,1.69,5.68.83,11.16,1.69,16.45,2.58,11.53,1.93,22.12,3.94,31.61,5.9,10.37,2.13,19.45,4.22,27.04,6.07,17.02,4.17,26.6,7.2,26.6,7.2l15.09-53.72c-247.54-82.44-461.8,0-461.8,0l17.81,53.72c7.39-2.46,14.8-4.75,22.21-6.86m358.58-27.28c.24.63.6,1.21,1.08,1.71.55.51,1.25.85,2,.97.39.08.79.12,1.2.12.4,0,.81-.05,1.19-.17.37-.1.71-.28,1.01-.51.3-.24.53-.55.67-.9.14-.31.17-.65.08-.98-.1-.29-.27-.55-.5-.76-.26-.25-.56-.46-.89-.62-.34-.18-.69-.35-1.05-.52-.64-.28-1.25-.59-1.82-.9-.52-.28-1-.63-1.41-1.05-.36-.38-.61-.85-.7-1.36-.1-.62-.02-1.26.24-1.84.25-.64.65-1.22,1.17-1.68.51-.45,1.09-.79,1.74-1.02.66-.23,1.35-.37,2.06-.41.72-.04,1.43.02,2.13.16.99.19,1.92.61,2.71,1.21.75.59,1.23,1.45,1.34,2.38l-2.54.87c-.11-.55-.38-1.06-.78-1.47-.47-.45-1.06-.76-1.71-.87-.35-.07-.71-.11-1.07-.1-.37,0-.73.06-1.08.16-.33.1-.63.25-.89.46-.26.21-.46.48-.58.79-.11.27-.1.57.03.83.15.28.36.52.61.72.32.25.66.48,1.03.66.43.22.86.42,1.31.6.58.25,1.14.54,1.68.87.48.28.9.65,1.24,1.08.32.41.53.9.6,1.41.06.63-.03,1.26-.28,1.84-.25.73-.68,1.39-1.25,1.93-.54.48-1.18.84-1.87,1.07-.7.23-1.44.35-2.18.36-.75,0-1.5-.07-2.23-.22-1.1-.2-2.14-.62-3.07-1.24-.84-.65-1.44-1.55-1.71-2.56l2.49-1.04Zm-19.19-7.3c.68-2.06,2.11-3.81,4.02-4.92.91-.52,1.91-.88,2.95-1.06,1.07-.18,2.17-.17,3.24.04.96.16,1.87.51,2.68,1.03.73.47,1.33,1.11,1.74,1.87.41.81.62,1.7.62,2.6,0,1.09-.2,2.17-.58,3.2l-.26.76-12-2.28c-.17.59-.22,1.21-.15,1.81.06.58.23,1.13.52,1.64.28.5.68.93,1.15,1.26.52.36,1.12.6,1.74.72.96.2,1.96.2,2.92-.03.93-.25,1.8-.66,2.57-1.21l1.34,1.74c-1.09.84-2.35,1.43-3.71,1.74-1.29.23-2.62.21-3.9-.05-1.06-.18-2.07-.58-2.95-1.18-.76-.53-1.38-1.22-1.82-2.03-.42-.81-.65-1.7-.66-2.6-.02-1.01.15-2.02.5-2.98m-3.61-15.24c.43-.27.96-.38,1.47-.29.47.06.88.34,1.11.74.23.4.28.87.13,1.3-.32.99-1.35,1.6-2.4,1.41-.47-.05-.89-.32-1.14-.71-.23-.41-.27-.89-.11-1.33.16-.47.49-.87.93-1.12m-2.18,6.75l2.48.43-4.71,14.14-2.48-.43,4.71-14.14Zm-15.17-2.49l3.27.52,1.27-4.04,2.48.39-1.27,4.04,4.4.69-.66,2-4.4-.7-2.23,7.1c-.14.46-.25.9-.36,1.3-.09.35-.12.71-.08,1.07.05.31.21.59.45.8.35.26.76.42,1.2.46.79.12,1.59.07,2.36-.13l-.6,2.17c-.51.12-1.03.18-1.55.17-.5,0-1.01-.04-1.51-.11-.72-.08-1.42-.31-2.04-.67-.43-.27-.75-.67-.93-1.14-.17-.51-.21-1.06-.11-1.59.11-.68.27-1.35.49-2.01l2.46-7.81-3.23-.6.61-1.92Zm-4.5-9.85l2.49.36-6.95,22.96-2.5-.36,6.95-22.96Zm-25.03,14.83l2.56-8.84,2.49.33-2.46,8.6c-.35.96-.35,2,0,2.95.45.83,1.32,1.36,2.28,1.38,1.43.26,2.9-.13,3.99-1.07,1.1-1.05,1.87-2.38,2.23-3.84l2-6.97,2.5.33-3.12,10.92c-.18.61-.33,1.22-.45,1.84-.12.58-.23,1.1-.37,1.57l-2.37-.31c.1-.39.2-.79.29-1.17s.21-.79.29-1.2h-.06c-.29.35-.62.66-1,.92-.43.29-.88.54-1.37.73-.51.21-1.05.35-1.61.43-.59.08-1.19.08-1.78,0-.85-.09-1.68-.35-2.43-.76-.6-.34-1.09-.83-1.43-1.42-.33-.61-.51-1.3-.53-1.99-.02-.82.1-1.63.33-2.42m-17.49-3.74c.27-1.05.72-2.05,1.34-2.95.61-.86,1.36-1.61,2.23-2.23,1.79-1.25,4-1.8,6.18-1.53,1.06.11,2.08.41,3.02.9.89.47,1.64,1.17,2.18,2.01l-2.45,1.47c-.31-.62-.79-1.14-1.37-1.53-.59-.36-1.26-.58-1.96-.64-.78-.1-1.56-.04-2.32.17-.7.2-1.34.53-1.91.98-.56.45-1.04.99-1.4,1.61-.38.64-.67,1.33-.87,2.04-.19.69-.25,1.41-.17,2.12.06.64.26,1.26.58,1.82.32.53.76.99,1.29,1.33.6.36,1.28.58,1.98.64,1.57.2,3.15-.3,4.3-1.37l1.4,1.9c-.88.7-1.91,1.2-3.01,1.48-1.07.26-2.17.33-3.26.21-1.06-.1-2.1-.41-3.04-.9-.83-.44-1.53-1.07-2.05-1.84-.5-.78-.83-1.66-.95-2.58-.14-1.04-.05-2.1.24-3.11m-4.84-14.92c.41-.3.93-.45,1.44-.4.47.02.91.26,1.17.65.28.38.36.86.23,1.3-.1.5-.39.93-.82,1.22-.42.29-.93.42-1.45.36-.47-.01-.91-.24-1.19-.62-.26-.38-.34-.86-.21-1.3.12-.48.41-.9.83-1.18m.89,7.13l-3.57,14.46-2.51-.24,3.56-14.47,2.52.26Zm-12.62-4.49c.19-.83.46-1.64.82-2.41.32-.69.78-1.31,1.34-1.84.55-.51,1.2-.89,1.92-1.12.86-.25,1.76-.33,2.65-.24.34.03.68.09,1.01.18.31.07.6.19.86.36l-.87,2.13c-.25-.12-.52-.23-.79-.3-.28-.08-.56-.13-.85-.15-.54-.07-1.09,0-1.6.2-.41.18-.76.47-1,.84-.29.42-.5.88-.63,1.37-.17.54-.32,1.11-.45,1.74l-.62,2.72,3.67.3-.5,2.04-3.67-.3-2.86,12.45-2.52-.21,2.87-12.45-3.29-.26.5-2.05,3.29.27.74-3.28Zm-15.27,2.17l3.29.23.7-3.26c.17-.83.44-1.65.79-2.43.31-.69.76-1.32,1.31-1.85.54-.52,1.2-.91,1.93-1.14.86-.27,1.76-.36,2.65-.28.34.03.68.08,1.01.17.31.07.62.18.89.34l-.84,2.17c-.25-.12-.52-.22-.79-.29-.28-.07-.57-.11-.87-.13-.54-.06-1.08.02-1.58.22-.41.19-.76.49-1,.87-.28.42-.49.88-.62,1.36-.16.54-.29,1.11-.45,1.74l-.58,2.74,3.67.26-.45,2.05-3.68-.26-2.71,12.49-2.51-.17,2.68-12.49-3.31-.26.48-2.06Zm-5.93-7.38c.4-.32.91-.49,1.42-.46.47.01.91.24,1.19.61.28.37.38.83.29,1.28-.09.5-.37.95-.78,1.25-.4.31-.91.47-1.43.43-.47,0-.92-.21-1.22-.57-.27-.38-.36-.85-.26-1.3.1-.48.38-.91.79-1.21m-1.34,6.94l2.51.14-2.98,14.58-2.51-.14,2.98-14.58Zm-24.59-8.69l8.81.31c1.21.06,2.4.3,3.53.71,1.24.44,2.36,1.13,3.3,2.03,1.01.99,1.76,2.2,2.19,3.53.49,1.7.55,3.48.18,5.21-.54,3.45-2.54,6.53-5.52,8.49-1.21.81-2.56,1.4-3.98,1.76-1.22.32-2.48.46-3.74.43l-8.8-.32,4.02-22.15Zm-32.49,10.75c.1-.63.17-1.26.21-1.89.03-.54.08-1.07.17-1.61h2.4c-.06.39-.11.8-.14,1.2s-.08.81-.13,1.23h.06c.24-.38.52-.73.85-1.04.37-.35.79-.65,1.24-.9.49-.27,1-.49,1.54-.64.58-.16,1.18-.24,1.78-.24.86-.03,1.71.12,2.5.43.64.26,1.2.68,1.62,1.22.42.56.7,1.21.81,1.9.13.81.13,1.63,0,2.44l-1.26,9.11h-2.53l1.22-8.84c.2-1,.05-2.03-.45-2.92-.57-.76-1.52-1.16-2.48-1.05-1.45-.08-2.85.51-3.79,1.59-.95,1.18-1.53,2.6-1.68,4.1l-.98,7.18h-2.52l1.54-11.25Zm-8.42-10.9l2.72-.07-2.62,22.34-2.72.06,2.62-22.33Zm-31.04-.26l2.52-.14-.91,11.17h.06c.22-.34.49-.64.79-.92.35-.32.73-.6,1.13-.84.45-.27.93-.48,1.43-.65,1.36-.43,2.83-.43,4.19,0,.66.23,1.24.62,1.69,1.13.44.54.75,1.18.89,1.85.18.8.23,1.62.15,2.43l-.74,9.14-2.53.14.74-8.89c.15-1.01-.06-2.03-.61-2.9-.61-.73-1.58-1.08-2.53-.92-1.45,0-2.82.66-3.7,1.78-.88,1.23-1.38,2.68-1.45,4.18l-.58,7.22-2.52.15,1.96-23.94Zm-16.02,10.23l3.29-.26.23-4.22,2.52-.2-.23,4.22,4.46-.35-.15,2.1-4.46.35-.45,7.42c0,.49-.04.93-.04,1.34,0,.36.06.72.19,1.06.12.29.34.53.62.67.4.17.85.23,1.28.17.39-.03.77-.1,1.14-.21.39-.11.76-.27,1.12-.46l-.05,2.25c-.46.23-.94.4-1.45.52-.5.12-1,.2-1.51.25-.72.09-1.45.03-2.14-.18-.48-.16-.9-.46-1.19-.87-.29-.46-.46-.99-.5-1.53-.05-.69-.05-1.38,0-2.07l.45-8.15-3.29.26.16-2.1Zm-7.46,12.86c-.6.97-1.44,1.77-2.44,2.34-.91.52-1.92.85-2.97.97-1.08.13-2.18.05-3.23-.24-.92-.25-1.77-.7-2.48-1.33-.69-.62-1.22-1.39-1.55-2.25-.36-.95-.53-1.97-.48-2.98.03-1.14.26-2.27.68-3.33.39-.98.97-1.87,1.71-2.63.75-.75,1.62-1.36,2.59-1.8,1.04-.47,2.15-.76,3.29-.87,1.03-.1,2.06.04,3.02.4.96.36,1.74,1.07,2.18,1.98h.07l.11-2.54,2.51-.26-.51,14.18c.07,2.33-.75,4.6-2.3,6.39-1.63,1.63-3.84,2.61-6.18,2.74-1.34.16-2.7.08-4.02-.23-1.25-.34-2.39-.97-3.32-1.84l1.87-2.21c.7.71,1.54,1.28,2.48,1.66.97.36,2.01.47,3.04.34.98-.07,1.93-.34,2.79-.78.7-.37,1.31-.89,1.78-1.51.46-.61.79-1.29.98-2.02.19-.75.29-1.51.32-2.28l.08-1.9h-.04Zm-29.45-8.86v1.2c0,.4.04.82.03,1.24h.07c.18-.41.42-.79.71-1.14.32-.39.69-.75,1.11-1.05.45-.33.94-.6,1.45-.82.55-.23,1.14-.39,1.74-.46.84-.14,1.71-.1,2.54.11.68.17,1.29.52,1.78,1,.49.5.85,1.12,1.05,1.78.25.78.36,1.6.34,2.42v9.18l-2.5.33.03-8.93c.07-1.01-.23-2.02-.84-2.84-.67-.68-1.66-.96-2.6-.74-1.45.11-2.76.87-3.55,2.06-.78,1.29-1.17,2.78-1.12,4.27v7.24l-2.5.33v-11.33c.02-.63,0-1.27-.05-1.9-.05-.54-.06-1.08-.04-1.61l2.36-.33Zm-22.1,7.65c.34-.99.86-1.92,1.53-2.73,1.36-1.64,3.29-2.73,5.43-3.07.96-.17,1.95-.15,2.9.06.85.19,1.64.59,2.3,1.16.67.61,1.19,1.37,1.51,2.21.38,1.03.59,2.11.6,3.2l.04.79-12.05,1.95c.07.6.24,1.19.51,1.74.27.52.63.98,1.08,1.36.44.37.96.64,1.53.79.62.16,1.27.18,1.9.07.98-.13,1.91-.48,2.73-1.02.78-.55,1.45-1.23,1.97-2.01l1.9,1.16c-.72,1.15-1.69,2.13-2.85,2.87-1.13.66-2.39,1.1-3.69,1.3-1.05.19-2.14.16-3.17-.1-.91-.24-1.75-.68-2.44-1.3-.69-.62-1.22-1.38-1.56-2.23-.39-.95-.59-1.95-.6-2.97-.05-1.1.11-2.2.47-3.25m-10.02-2.48c0,.4.04.8.09,1.2s.08.81.1,1.23h.05c.16-.42.38-.81.64-1.18.3-.41.66-.78,1.05-1.11.43-.35.9-.65,1.4-.9.54-.26,1.11-.45,1.7-.56.17-.03.35-.06.52-.07.18-.01.35,0,.53.03l-.03,2.53c-.46-.04-.92-.02-1.37.07-1.35.18-2.55.95-3.24,2.1-.68,1.31-.96,2.77-.81,4.23l.41,7.23-2.48.46-.62-11.32c-.02-.63-.07-1.26-.17-1.89-.07-.53-.12-1.07-.13-1.61l2.35-.45Zm-14.23-1.48l2.47-.51.33,4.2,4.37-.9.12,2.1-4.36.91.56,7.41c.04.48.09.93.15,1.34.04.36.15.7.32,1.02.16.27.41.48.71.59.42.12.87.12,1.3,0,.77-.17,1.5-.49,2.13-.95l.26,2.23c-.42.29-.88.53-1.37.71-.47.18-.96.33-1.45.43-.7.18-1.44.21-2.16.09-.5-.1-.96-.35-1.29-.72-.36-.42-.6-.91-.71-1.44-.16-.67-.26-1.36-.3-2.04l-.63-8.13-3.22.67-.13-2.1,3.23-.67-.34-4.21Zm-20.77,4.34c.33-.89.84-1.71,1.49-2.41.66-.71,1.44-1.31,2.3-1.79.87-.49,1.81-.85,2.79-1.08,1.14-.29,2.33-.37,3.49-.23,1.11.17,2.15.65,2.99,1.38l-1.96,2.41c-.49-.58-1.18-.99-1.94-1.14-.77-.16-1.57-.14-2.34.05-.59.14-1.17.36-1.7.63-.54.27-1.03.61-1.45,1.02-.43.41-.76.89-.98,1.43-.23.57-.32,1.19-.24,1.8.04.45.17.9.37,1.3.2.37.51.67.89.87.48.26,1,.44,1.54.54.76.16,1.54.26,2.32.3.89.07,1.74.17,2.58.29.79.11,1.55.35,2.26.7.67.35,1.24.85,1.66,1.47.5.79.79,1.68.85,2.6.11,1.04-.02,2.08-.37,3.07-.34.91-.86,1.74-1.54,2.45-.69.72-1.49,1.33-2.38,1.79-.91.48-1.87.84-2.88,1.08-.65.15-1.31.25-1.97.29-.65.04-1.3.01-1.94-.1-.61-.1-1.21-.28-1.76-.56-.57-.28-1.07-.66-1.49-1.12l2.07-2.4c.54.7,1.32,1.19,2.2,1.39.92.22,1.88.22,2.8,0,.59-.15,1.16-.38,1.68-.68.55-.3,1.04-.67,1.48-1.11.44-.42.78-.93,1.02-1.48.24-.56.33-1.17.26-1.77-.04-.57-.23-1.12-.54-1.61-.3-.39-.71-.7-1.18-.87-.61-.22-1.25-.37-1.9-.43-.75-.08-1.64-.17-2.68-.28-.77-.06-1.53-.18-2.28-.35-.67-.16-1.31-.42-1.89-.79-.55-.37-1.01-.86-1.34-1.43-.38-.71-.61-1.49-.67-2.29-.12-1,0-2.01.35-2.96"/><path id="Path_1338" d="m159.37,38.67c-.95-.66-2.15-.89-3.29-.62-1.27.17-2.45.77-3.32,1.69-.83.92-1.34,2.08-1.43,3.3l9.37-1.52c0-1.09-.49-2.13-1.34-2.85"/><path id="Path_1339" d="m440.08,46.82c-.65-.95-1.69-1.57-2.86-1.7-1.25-.28-2.57-.13-3.72.43-1.11.57-2,1.49-2.53,2.6l9.34,1.77c.39-1.02.31-2.16-.23-3.12"/><path id="Path_1340" d="m561.76,75.16s-12.94-13.64-49.13-21.74l-11.7,43.34-23.11,6.73s22.83,0,68.75,23.65c-2.46-11.23-6.34-22.12-11.57-32.42,0,0,24.22-13.66,26.74-19.56"/></g></g></g></svg>